<?xml version="1.0" encoding="UTF-8" standalone="no"?>
<!DOCTYPE svg  PUBLIC '-//W3C//DTD SVG 1.1//EN'  'http://www.w3.org/Graphics/SVG/1.1/DTD/svg11.dtd'>
<svg xmlns="http://www.w3.org/2000/svg">
<defs>
<font id="Kirvy-Thin" horiz-adv-x="721">
<font-face underline-position="-100" font-weight="100" descent="-200" panose-1="0 0 5 3 0 0 0 0 0 0" units-per-em="1000" unicode-range="U+0020-20AC" bbox="53 -193 983 959" x-height="564" underline-thickness="50" font-family="Kirvy" ascent="800" cap-height="769"/>
<missing-glyph horiz-adv-x="1000"/>
<glyph glyph-name=".notdef" horiz-adv-x="1000"/>
<glyph glyph-name=".null" horiz-adv-x="0"/>
<glyph glyph-name="nonmarkingreturn" horiz-adv-x="333"/>
<glyph glyph-name="space" horiz-adv-x="266" unicode=" "/>
<glyph glyph-name="exclam" horiz-adv-x="193" unicode="!" d="M247 83q31 0 31 -34t-32 -34q-14 0 -22.5 9t-8.5 25q0 34 32 34zM236 328v441h20v-441h-20z"/>
<glyph glyph-name="quotedbl" horiz-adv-x="259" unicode='&quot;' d="M167 638v131h20v-131h-20zM85 638v131h20v-131h-20z"/>
<glyph glyph-name="numbersign" horiz-adv-x="646" unicode="#" d="M438 305l65 195h-252l-65 -195h252zM612 769l-83 -250h89v-19h-95l-65 -195h92v-19h-98l-90 -271h-20l90 271h-252l-90 -271h-20l90 271h-82v19h88l65 195h-85v19h91l83 250h20l-83 -250h252l83 250h20z"/>
<glyph glyph-name="dollar" horiz-adv-x="521" unicode="$" d="M304 70q73 7 116.5 51t43.5 113q0 67 -56 104q-33 22 -101 42l-19 5v-317zM153 457q32 -21 96 -40l19 -6v297l-16 -1q-75 -5 -115 -41.5t-40 -101.5q0 -70 56 -107zM466 307q18 -30 18 -73q0 -36 -13 -72q-13 -33 -39 -59q-48 -48 -130 -54l-14 -1v-33h-20v33l-14 1 q-67 3 -109 24q-41 20 -71 64l-6 8l16 12l6 -8q25 -35 60.5 -56t101.5 -24l16 -1v323l-11 3q-80 23 -115 46q-30 20 -47 49q-18 31 -18 75q0 75 46 116q46 43 131 47l14 1v41h20v-40l13 -2q85 -11 140 -89l5 -8l-16 -11l-6 8q-47 67 -119 79l-17 3v-303l11 -3 q81 -22 120 -48q31 -21 47 -48z"/>
<glyph glyph-name="percent" horiz-adv-x="594" unicode="%" d="M450 33q39 0 66.5 29.5t27.5 70.5t-27.5 71t-66.5 30t-66.5 -30t-27.5 -71t27.5 -70.5t66.5 -29.5zM450 252q46 0 79 -35t33 -84t-33 -83.5t-79 -34.5t-79 34.5t-33 83.5t33 84t79 35zM177 741q-39 0 -66.5 -29.5t-27.5 -70.5t27.5 -70.5t66.5 -29.5t66.5 29.5t27.5 70.5 t-27.5 70.5t-66.5 29.5zM177 523q-46 0 -79 34.5t-33 83.5t33 83.5t79 34.5t79 -34.5t33 -83.5t-33 -83.5t-79 -34.5zM518 769h20l-435 -754h-21z"/>
<glyph glyph-name="ampersand" horiz-adv-x="629" unicode="&amp;" d="M306 749q-104 0 -116 -85q-2 -16 -2 -26q0 -75 52 -188l6 -14l14 6q23 11 55 21q61 21 94.5 66.5t33.5 96.5q0 15 -1 22q-7 47 -44 74t-92 27zM224 402q-64 -37 -102 -86q-48 -62 -48 -126q0 -9 2 -25q10 -61 60.5 -96t124.5 -35q105 0 176 65l11 10l-10 11 q-58 63 -119 152q-45 68 -74 124l-8 14zM600 -9q-53 23 -128 95l-11 10l-10 -10q-76 -71 -190 -71q-85 0 -141 42q-52 39 -63 105q-2 18 -2 28q0 71 52 138q41 53 110 93l12 6l-6 13q-4 9 -10 24t-8 19q-36 91 -36 155q0 11 2 29q7 47 40 74t95 27q66 0 108 -34 q40 -33 47 -83q2 -16 2 -25q0 -51 -28 -94q-39 -63 -114 -87q-26 -9 -52 -20l-14 -6l7 -14q38 -71 73 -122q56 -82 114 -146l12 -13l11 14q1 1 2.5 3.5t2.5 3.5q74 106 77 290h19q-2 -94 -20 -164q-22 -83 -60 -137q-2 -3 -10 -14l-9 -10l10 -9q71 -69 122 -91z"/>
<glyph glyph-name="quotesingle" horiz-adv-x="225" unicode="&apos;" d="M112 767h20v-8q0 -70 -36 -123l-15 13q31 49 31 110v8z"/>
<glyph glyph-name="parenleft" horiz-adv-x="335" unicode="(" d="M284 -113q-84 11 -142 131q-62 127 -62 310q0 182 62 309q57 119 142 131v-19q-31 -5 -60 -30q-38 -33 -65 -90q-60 -125 -60 -301q0 -177 60 -302q26 -55 65 -89q28 -25 60 -31v-19z"/>
<glyph glyph-name="parenright" horiz-adv-x="324" unicode=")" d="M63 -113v19q30 5 61 31q37 33 64 89q60 125 60 302q0 176 -60 301q-28 58 -64 90q-26 23 -61 30v19q84 -11 142 -131q62 -127 62 -309q0 -183 -62 -310q-57 -119 -142 -131z"/>
<glyph glyph-name="asterisk" horiz-adv-x="479" unicode="*" d="M438 583v-18h-167l128 -170l-15 -10l-131 174l-132 -174l-14 10l127 170h-167v18h167l-127 169l14 11l132 -174l131 174l15 -11l-128 -169h167z"/>
<glyph glyph-name="plus" horiz-adv-x="569" unicode="+" d="M531 306v-20h-221v-270h-20v270h-221v20h221v270h20v-270h221z"/>
<glyph glyph-name="comma" horiz-adv-x="205" unicode="," d="M126 -126l-7 19q40 30 40 87v70h20v-70q0 -54 -33 -89q-9 -11 -20 -17z"/>
<glyph glyph-name="hyphen" horiz-adv-x="385" unicode="-" d="M81 286v20h245v-20h-245z"/>
<glyph glyph-name="period" horiz-adv-x="201" unicode="." d="M147 84q31 0 31 -34t-32 -34q-14 0 -22.5 9t-8.5 25q0 34 32 34z"/>
<glyph glyph-name="slash" horiz-adv-x="506" unicode="/" d="M142 15h-21l250 754h21z"/>
<glyph glyph-name="zero" horiz-adv-x="571" unicode="0" d="M303 749q-80 0 -128.5 -51.5t-64.5 -123.5q-15 -72 -15 -182t15 -182q16 -72 64.5 -123.5t128.5 -51.5t128.5 51.5t64.5 123.5q15 72 15 182t-15 182q-16 72 -64.5 123.5t-128.5 51.5zM303 15q-85 0 -143 58q-54 54 -70 133q-15 72 -15 186t15 186q16 79 70 133 q58 58 143 58q84 0 142 -58q54 -54 70 -133q15 -72 15 -186t-15 -186q-16 -79 -70 -133q-58 -58 -142 -58z"/>
<glyph glyph-name="one" horiz-adv-x="326" unicode="1" d="M255 15h-20v714l-27 -33q-9 -12 -23 -26q-31 -32 -58 -52q-34 -24 -55 -24h-11v20h11q33 0 99 70q25 26 46 58q2 4 14 27h24v-754z"/>
<glyph glyph-name="two" horiz-adv-x="498" unicode="2" d="M452 15h-383v10q0 134 70 226q41 54 145 128q39 28 59.5 44t45.5 43t36 57.5t11 67.5v1q0 38 -23 80q-44 77 -146 77q-75 0 -133 -43q-23 -17 -34 -32l-17 10q16 21 37 37q61 48 147 48q115 0 164 -89q25 -45 25 -88q0 -77 -50 -136q-31 -37 -111 -93q-38 -27 -58 -42.5 t-51.5 -46.5t-48.5 -59.5t-31 -71.5t-17 -93v-15h363v-20z"/>
<glyph glyph-name="three" horiz-adv-x="529" unicode="3" d="M281 21q-93 0 -161 53q-21 16 -42 42l18 10q16 -20 38 -37q65 -48 147 -48q85 0 138 55.5t53 127.5q0 74 -57 122q-65 54 -191 57l1 20q103 3 160 51q52 44 52 112q0 65 -48 115.5t-125 50.5q-34 0 -65.5 -9.5t-49.5 -20t-34.5 -26.5t-20 -21t-7.5 -11l-5 -9l-17 10l5 9 q11 22 46 49q65 49 148 49q84 0 141 -59q52 -55 52 -127q0 -77 -59 -127q-17 -14 -46 -28l-33 -16l35 -12q42 -14 73 -41q65 -54 65 -138q0 -79 -57 -139q-61 -64 -154 -64z"/>
<glyph glyph-name="four" horiz-adv-x="559" unicode="4" d="M84 322h331v423zM526 322v-20h-91v-287h-20v287h-349v30l342 437h27v-447h91z"/>
<glyph glyph-name="five" horiz-adv-x="528" unicode="5" d="M425 410q64 -69 64 -164q0 -94 -64 -163q-63 -68 -154 -68q-65 0 -119.5 37.5t-80.5 100.5l-3 9l18 8l4 -9q24 -57 73 -91.5t108 -34.5q82 0 140 62t58 149t-58 149.5t-140 62.5q-83 0 -141 -63l-12 -14l-28 2l15 386h338v-20h-319l-13 -343l25 22q26 21 49 31 q43 19 86 19q91 0 154 -68z"/>
<glyph glyph-name="six" horiz-adv-x="561" unicode="6" d="M305 33q81 0 138 62.5t57 150.5q0 87 -57 149.5t-138 62.5t-138 -62.5t-57 -149.5q0 -88 57 -150.5t138 -62.5zM457 410q63 -69 63 -164t-63 -164q-64 -69 -152 -69t-152 69q-33 36 -48.5 87t-15.5 159q0 14 -0.5 43t-0.5 43q0 107 13.5 179t55.5 116q55 58 158 58 q51 0 97 -26q44 -24 75 -68l5 -8l-16 -11l-6 8q-59 85 -155 85q-93 0 -144 -52q-66 -68 -66 -252q0 -9 0.5 -25t0.5 -25l1 -46l26 37q9 13 20 26q63 68 152 68t152 -68z"/>
<glyph glyph-name="seven" horiz-adv-x="576" unicode="7" d="M172 15h-20q4 90 60 221q49 116 129 249q65 108 160 241l17 23h-449v20h467v-28q-99 -134 -178 -266q-177 -294 -186 -460z"/>
<glyph glyph-name="eight" horiz-adv-x="539" unicode="8" d="M285 35q81 0 139 54.5t58 131.5t-58 131t-139 54t-138.5 -54t-57.5 -131t57.5 -131.5t138.5 -54.5zM109 587q0 -67 52 -114t125 -47t125 47t52 114t-52.5 114.5t-124.5 47.5t-124.5 -47.5t-52.5 -114.5zM438 366q64 -61 64 -145q0 -85 -64 -146q-63 -60 -153 -60 q-89 0 -152 60q-64 61 -64 146q0 84 64 145q25 24 54 38l26 12l-26 14q-20 11 -40 29q-58 53 -58 128q0 76 58 129t139 53t139 -53t58 -129q0 -75 -58 -128q-19 -17 -41 -29l-26 -14l26 -13q31 -16 54 -37z"/>
<glyph glyph-name="nine" horiz-adv-x="561" unicode="9" d="M286 747q-81 0 -138 -62.5t-57 -150.5q0 -87 57 -149.5t138 -62.5t137.5 62t56.5 150t-56.5 150.5t-137.5 62.5zM134 370q-63 69 -63 164t63 164q64 69 152 69t152 -69q33 -36 48.5 -87t15.5 -159q0 -14 0.5 -42.5t0.5 -43.5q0 -107 -13.5 -179t-55.5 -116 q-55 -58 -158 -58q-52 0 -98 26q-42 23 -74 68l-5 8l16 11l5 -8q59 -85 156 -85q93 0 144 52q66 68 66 252q0 9 -0.5 26t-0.5 25l-1 45l-26 -37q-6 -9 -20 -25q-64 -69 -152 -69q-89 0 -152 68z"/>
<glyph glyph-name="colon" horiz-adv-x="204" unicode=":" d="M146 408q-14 0 -22.5 9t-8.5 25q0 34 32 34q31 0 31 -34t-32 -34zM147 84q31 0 31 -34t-32 -34q-14 0 -22.5 9t-8.5 25q0 34 32 34z"/>
<glyph glyph-name="semicolon" horiz-adv-x="216" unicode=";" d="M159 -20v70h20v-70q0 -54 -33 -89q-9 -11 -20 -17l-7 19q40 30 40 87zM170 476q31 0 31 -34t-32 -34q-14 0 -22.5 9t-8.5 25q0 34 32 34z"/>
<glyph glyph-name="less" horiz-adv-x="582" unicode="&lt;" d="M531 21l-465 278v13l465 279l9 -16l-448 -269l448 -269z"/>
<glyph glyph-name="equal" horiz-adv-x="589" unicode="=" d="M81 174v20h462v-20h-462zM81 406v20h462v-20h-462z"/>
<glyph glyph-name="greater" horiz-adv-x="583" unicode="&gt;" d="M83 21l-9 16l448 269l-448 269l9 16l465 -279v-13z"/>
<glyph glyph-name="question" horiz-adv-x="487" unicode="?" d="M555 720q50 -47 50 -124q0 -90 -42 -143q-23 -29 -85 -60q-40 -19 -57.5 -37.5t-17.5 -53.5v-9h-19v9q0 31 13.5 52.5t28 31.5t43.5 24q28 14 43 24t35 31t29.5 53.5t9.5 77.5q0 76 -49.5 115t-141.5 39q-95 0 -154 -86l-5 -8l-15 11l5 8q65 94 169 94q108 0 160 -49z M400 81q29 0 29 -33t-30 -33q-14 0 -22 9t-8 24t8.5 24t22.5 9z"/>
<glyph glyph-name="at" horiz-adv-x="924" unicode="@" d="M476 53q89 0 150.5 73t61.5 174t-61.5 173.5t-150.5 72.5t-150 -72.5t-61 -173.5t61.5 -174t149.5 -73zM872 487q32 -86 32 -186q0 -84 -39 -172q-23 -52 -51 -80q-35 -35 -79 -35q-41 0 -61 25q-16 20 -18 52l-2 34l-24 -25q-30 -30 -63 -46q-43 -21 -91 -21 q-46 0 -90 21q-41 19 -74 58q-67 78 -67 188t67 188q31 37 74 57q44 21 90 21q48 0 91 -21q43 -20 74 -57q30 -35 47 -79l18 -48l40 198l20 -4l-89 -438q-2 -8 -2 -21q0 -27 14 -44q15 -18 46 -18q36 0 65 29q25 25 47 74q37 84 37 164q0 157 -80 278q-55 84 -138 133 t-178 49q-164 0 -280 -135t-116 -325t116 -325t280 -135q72 0 139 29q42 19 77 45l8 6l12 -16l-8 -6q-40 -30 -81 -48q-71 -30 -147 -30q-83 0 -162 38q-75 36 -133 103q-56 65 -88 152q-33 88 -33 187t33 187q32 87 88 152q58 67 133 103q79 38 162 38q84 0 163 -38 q74 -35 132 -103q57 -66 89 -153z"/>
<glyph glyph-name="A" horiz-adv-x="648" unicode="A" d="M341 747l-154 -440l29 9q21 7 44 7h148q46 0 65 14l8 7zM85 15h-20l263 754h25l263 -754h-20l-108 308l-15 -8q-24 -11 -65 -11h-148q-66 0 -92 -52v-1z"/>
<glyph glyph-name="B" horiz-adv-x="644" unicode="B" d="M398 35q76 0 130 53.5t54 130.5q0 76 -54 130t-130 54l-233 1q-20 0 -35 6l-21 8v-383h243h46zM398 749h-289v-281v-1q3 -19 12 -28q14 -15 44 -15h233q68 0 115 47t47 115t-47.5 115.5t-114.5 47.5zM542 364q60 -60 60 -145q0 -84 -60 -144t-144 -60h-309v754h309 q76 0 129 -53.5t53 -129.5q0 -50 -24.5 -92t-66.5 -66l-24 -14l24 -12q32 -17 53 -38z"/>
<glyph glyph-name="C" horiz-adv-x="663" unicode="C" d="M379 15q-62 0 -119 30q-56 29 -97 81q-88 110 -88 266t88 266q41 52 97 81q57 30 119 30q73 0 137 -41q61 -38 104 -107l6 -9l-18 -11l-5 9q-41 66 -99.5 102.5t-124.5 36.5q-118 0 -201 -105t-83 -252t83 -252t201 -105q66 0 124.5 36.5t99.5 102.5l5 9l18 -11l-6 -9 q-43 -69 -104 -107q-64 -41 -137 -41z"/>
<glyph glyph-name="D" horiz-adv-x="648" unicode="D" d="M109 36l196 -1q116 0 197 105q83 105 83 254q0 146 -81 250.5t-199 104.5h-196v-713zM304 15l-215 1v753h216q61 0 117 -30q54 -29 96 -81q87 -109 87 -264q0 -75 -23 -146q-22 -67 -64 -121q-43 -54 -96 -82q-57 -30 -118 -30z"/>
<glyph glyph-name="E" horiz-adv-x="575" unicode="E" d="M526 15h-437v754h437v-20h-417v-340l20 8q15 6 36 6h361v-20h-361q-31 0 -45 -15q-11 -12 -11 -31v-322h417v-20z"/>
<glyph glyph-name="F" horiz-adv-x="585" unicode="F" d="M163 423h311v-20h-309q-30 0 -44 -15q-12 -13 -12 -33v-340h-20v754h462v-20h-442v-340l20 8q11 4 34 6z"/>
<glyph glyph-name="G" horiz-adv-x="713" unicode="G" d="M378 15q-62 0 -119 30q-54 29 -96 81q-88 112 -88 266t88 266q42 52 96 81q57 30 119 30q75 0 142 -44q58 -38 98 -104l-17 -10q-40 65 -98.5 101.5t-124.5 36.5q-118 0 -200.5 -105t-82.5 -252t82.5 -252t200.5 -105q97 0 181.5 96.5t93.5 230.5l1 16h-16h-202 q-45 0 -75 -28q-10 -10 -12 -13l-19 7q12 16 17 21q33 31 83 33h225h9q4 0 7 -3t3 -7q0 -73 -26 -143q-25 -68 -67 -119q-43 -53 -96.5 -82t-106.5 -29z"/>
<glyph glyph-name="H" horiz-adv-x="625" unicode="H" d="M567 15h-20v421l-23 -14q-28 -18 -66 -19h-255q-47 0 -76 -27q-7 -6 -16 -21l-2 -4v-336h-20v754h20v-379l23 14q30 19 71 19h250q47 0 76 27q7 6 16 21l2 4v294h20v-754z"/>
<glyph glyph-name="I" horiz-adv-x="190" unicode="I" d="M89 15v754h20v-754h-20z"/>
<glyph glyph-name="J" horiz-adv-x="411" unicode="J" d="M63 15v20q113 7 190 111t77 245v378h20v-378q0 -155 -88 -265q-42 -52 -96 -81q-50 -27 -103 -30z"/>
<glyph glyph-name="K" horiz-adv-x="607" unicode="K" d="M109 439q8 13 17 19l333 311h30l-350 -327q-20 -18 -20 -33q0 -19 17 -32l392 -362h-30l-374 346h-1q-7 5 -14 16v-362h-20v754h20v-330z"/>
<glyph glyph-name="L" horiz-adv-x="589" unicode="L" d="M124 35h427v-20h-462v754h20v-734h15z"/>
<glyph glyph-name="M" horiz-adv-x="733" unicode="M" d="M655 769h26v-754h-20v712l-260 -712h-32l-260 712v-712h-20v754h26l270 -739z"/>
<glyph glyph-name="N" horiz-adv-x="619" unicode="N" d="M509 52v-37h-3l-397 730v-730h-20v754h29zM509 52l20 -37v754h-20v-717z"/>
<glyph glyph-name="O" d="M378 749q-118 0 -200.5 -105t-82.5 -252t82.5 -252t200.5 -105t200.5 105t82.5 252t-82.5 252t-200.5 105zM378 15q-62 0 -119 30q-54 29 -96 81q-88 112 -88 266t88 266q42 52 96 81q57 30 119 30t119 -30q54 -29 96 -81q88 -112 88 -266t-88 -266q-42 -52 -96 -81 q-57 -30 -119 -30z" unicode="O"/>
<glyph glyph-name="P" horiz-adv-x="614" unicode="P" d="M397 423q67 0 114.5 47.5t47.5 114.5t-47.5 115.5t-114.5 48.5h-288v-340l20 8q18 6 32 6h236zM398 769q75 0 128 -54t53 -130t-53 -129t-129 -53h-232q-30 0 -45 -16q-8 -9 -11 -27v-1v-344h-20v754h309z"/>
<glyph glyph-name="Q" d="M378 35q118 0 200.5 105t82.5 252t-82.5 252t-200.5 105t-200.5 -105t-82.5 -252t82.5 -252t200.5 -105zM626 32l1 -21q-12 2 -26 7q-30 12 -52 43l-9 12l-12 -8q-16 -12 -32 -20q-57 -30 -118 -30q-62 0 -119 30q-54 29 -96 81q-88 112 -88 266t88 266q42 52 96 81 q57 30 119 30q61 0 118 -30q56 -29 97 -81q88 -112 88 -266t-88 -266q-9 -11 -28 -30l-9 -9l7 -10q24 -38 63 -45z" unicode="Q"/>
<glyph glyph-name="R" horiz-adv-x="627" unicode="R" d="M129 417q18 6 32 6h236q67 0 114.5 47.5t47.5 114.5t-47.5 115.5t-114.5 48.5h-288v-340zM590 15h-22l-150 338v1q-12 20 -28 32t-24.5 14.5t-13.5 2.5h-187q-30 0 -45 -16q-8 -9 -11 -27v-1v-344h-20v754h308q75 0 128.5 -54t53.5 -130q0 -66 -42 -116.5t-106 -62.5 l-24 -4l15 -20q12 -17 16 -24z"/>
<glyph glyph-name="S" horiz-adv-x="628" unicode="S" d="M328 15q-105 0 -167 27q-50 22 -89 71l-6 7l16 12l6 -8q35 -43 86.5 -66.5t153.5 -23.5q108 0 172.5 50t64.5 136q0 32 -12.5 57t-30 41.5t-51.5 31t-63 23t-78 20.5q-123 30 -172 58q-40 24 -59 54q-23 35 -23 83q0 79 58 128q65 53 194 53q124 0 203 -99l6 -7l-16 -12 l-6 8q-72 91 -187 91q-123 0 -181 -48q-51 -40 -51 -114q0 -33 12.5 -58.5t31 -42.5t53 -31.5t64 -23.5t78.5 -21q124 -30 170 -57q38 -22 58 -53q22 -34 22 -81q0 -45 -16 -80q-17 -38 -48 -65q-69 -60 -193 -60z"/>
<glyph glyph-name="T" horiz-adv-x="642" unicode="T" d="M612 769v-20h-272v-734h-20v734h-257v20h549z"/>
<glyph glyph-name="U" horiz-adv-x="604" unicode="U" d="M317 16q-96 0 -164 68t-68 164v521h20v-521q0 -88 62 -150t150 -62t150 62t62 150v521h20v-521q0 -96 -68 -164t-164 -68z"/>
<glyph glyph-name="V" horiz-adv-x="654" unicode="V" d="M328 15l-263 754h21l258 -739l258 739h21l-263 -754h-32z"/>
<glyph glyph-name="W" horiz-adv-x="996" unicode="W" d="M964 769h19l-264 -754h-23l-172 633l-172 -633h-23l-264 754h19l256 -731l178 658h11l179 -658z"/>
<glyph glyph-name="X" horiz-adv-x="700" unicode="X" d="M659 769l-280 -377l280 -377h-23l-268 362l-269 -362h-22l279 377l-279 377h22l269 -362l268 362h23z"/>
<glyph glyph-name="Y" horiz-adv-x="704" unicode="Y" d="M668 769l-271 -364v-2q-17 -44 -17 -93v-295h-19v295q0 51 -16 93l-1 2l-270 364h23l274 -368l273 368h24z"/>
<glyph glyph-name="Z" horiz-adv-x="683" unicode="Z" d="M655 749l-565 -714h545v-20h-571v20l565 714h-545v20h571v-20z"/>
<glyph glyph-name="bracketleft" horiz-adv-x="229" unicode="[" d="M181 -123h-91v892h91v-20h-71v-852h71v-20z"/>
<glyph glyph-name="backslash" horiz-adv-x="383" unicode="\" d="M317 15l-250 754h21l250 -754h-21z"/>
<glyph glyph-name="bracketright" horiz-adv-x="231" unicode="]" d="M63 -123v20h71v852h-71v20h91v-892h-91z"/>
<glyph glyph-name="asciicircum" horiz-adv-x="456" unicode="^" d="M88 630l-11 16l171 119l155 -118l-12 -16l-144 110z"/>
<glyph glyph-name="underscore" horiz-adv-x="581" unicode="_" d="M75 15v20h462v-20h-462z"/>
<glyph glyph-name="grave" horiz-adv-x="205" unicode="`" d="M115 629v8q0 62 -31 110l15 13q36 -51 36 -123v-8h-20z"/>
<glyph glyph-name="a" horiz-adv-x="507" unicode="a" d="M380 304h-121q-70 0 -122 -41q-50 -40 -50 -94t50 -94q51 -40 122 -40t122 40q49 40 49 94v148l-20 -8q-13 -5 -30 -5zM259 15q-78 0 -135 44q-57 46 -57 110t57 110q58 45 135 45h121h3q20 0 32 12q13 12 15 40v34q0 57 -48.5 95.5t-114.5 38.5q-91 0 -138 -64l-6 -8 l-17 12l6 8q53 72 155 72q76 0 129 -45q54 -46 54 -109v-241q0 -64 -57 -110q-57 -44 -134 -44z"/>
<glyph glyph-name="b" horiz-adv-x="525" unicode="b" d="M109 35h97q104 0 176.5 72.5t72.5 176.5t-73 177t-176 73h-40q-22 0 -37 6l-20 8v-513zM206 15h-117v754h20v-167q0 -20 12 -33q14 -15 45 -15h40q112 0 191 -79q78 -78 78 -191q0 -112 -78 -190q-79 -79 -191 -79z"/>
<glyph glyph-name="c" horiz-adv-x="507" unicode="c" d="M300 15q-48 0 -89 22q-40 21 -72 59q-66 80 -66 193q0 114 66 194q32 38 72 59q44 22 89 22q101 0 154 -72l6 -8l-16 -12l-6 8q-47 64 -138 64q-87 0 -147 -74.5t-60 -180.5t60 -180t147 -74q91 0 138 64l6 8l16 -12l-6 -8q-53 -72 -154 -72z"/>
<glyph glyph-name="d" horiz-adv-x="520" unicode="d" d="M417 540q-15 -6 -36 -6h-41q-103 0 -176 -73t-73 -177t72.5 -176.5t176.5 -72.5h97v513zM150 94q-79 79 -79 190q0 112 79 191t190 79h41q31 0 45 15q6 7 9 15t3 13l-1 5v167h20v-754h-117q-111 0 -190 79z"/>
<glyph glyph-name="e" horiz-adv-x="516" unicode="e" d="M300 15q-96 0 -162 81q-44 54 -59 129v1q-6 22 -6 63q0 114 66 194q32 38 72 59q44 22 89 22q76 0 123 -38q44 -36 44 -87q0 -54 -49 -94q-52 -41 -142 -41h-136q-18 0 -29 -10q-16 -16 -16 -38q0 -3 0.5 -5.5t0.5 -4.5v-2q13 -89 70 -149t134 -60q100 0 148 64l6 8 l16 -12l-6 -8q-54 -72 -164 -72zM300 544q-76 0 -132.5 -59t-70.5 -148l-4 -26l24 9l23 4h136q83 0 130 37q41 33 41 78q0 43 -39.5 74t-107.5 31z"/>
<glyph glyph-name="f" horiz-adv-x="333" unicode="f" d="M277 769h10v-20h-10q-69 0 -118.5 -52t-52.5 -125l-1 -23l22 9q15 6 35 6h100v-20h-100q-30 0 -45 -16q-11 -12 -11 -31v-482h-20v549q0 84 56 145q55 60 135 60z"/>
<glyph glyph-name="g" horiz-adv-x="520" unicode="g" d="M383 48q21 0 36 -6l20 -8v513h-97q-103 0 -176 -73.5t-73 -176.5t73 -176t176 -73h41zM342 567h117v-598q0 -64 -54 -109q-55 -45 -128 -45q-102 0 -155 72l-6 8l16 12l6 -8q47 -64 139 -64q66 0 114 38.5t48 95.5v15q0 17 -12 29q-14 15 -44 15h-41q-111 0 -190 79 t-79 190q0 112 79 191t190 79z"/>
<glyph glyph-name="h" horiz-adv-x="531" unicode="h" d="M415 496q56 -61 56 -146v-335h-20v335q0 76 -50 131t-121 55h-121q-16 0 -29 5l-21 9v-535h-20v754h20v-156q0 -30 16 -45q13 -12 31 -12h1h123q36 0 63 -11q39 -14 72 -49z"/>
<glyph glyph-name="i" horiz-adv-x="187" unicode="i" d="M97 743q10 0 10 -10v-14q0 -10 -10 -10t-10 10v14q0 10 10 10zM87 15v549h20v-549h-20z"/>
<glyph glyph-name="j" horiz-adv-x="326" unicode="j" d="M234 20v569h20v-569q0 -84 -56 -145q-55 -60 -135 -60h-10v20h10q71 0 121 54.5t50 130.5zM244 743q10 0 10 -10v-14q0 -10 -10 -10t-10 10v14q0 10 10 10z"/>
<glyph glyph-name="k" horiz-adv-x="548" unicode="k" d="M239 314l258 -299h-27l-247 288q-13 15 -32 16q-10 0 -20 -5l-2 -1l-60 -48v-250h-20v754h20v-478l344 273h33l-282 -224l18 -11q14 -8 17 -15z"/>
<glyph glyph-name="l" horiz-adv-x="190" unicode="l" d="M89 15v754h20v-754h-20z"/>
<glyph glyph-name="m" horiz-adv-x="869" unicode="m" d="M771 504q56 -61 56 -146v-343h-20v343q0 76 -50 131t-121 55t-121 -55t-50 -131v-343h-20v343q0 76 -50 131t-121 55t-121 -55t-50 -131v-343h-20v343q0 85 56 146q55 60 135 60t135 -60q19 -20 33 -47l13 -26l13 26q14 27 33 47q55 60 135 60t135 -60z"/>
<glyph glyph-name="n" horiz-adv-x="525" unicode="n" d="M465 15h-20v343q0 76 -50 131t-121 55t-121 -55t-50 -131v-343h-20v343q0 85 56 146q55 60 135 60t135 -60q56 -61 56 -146v-343z"/>
<glyph glyph-name="o" horiz-adv-x="592" unicode="o" d="M308 544q-90 0 -152.5 -75t-62.5 -179t62.5 -179t152.5 -75t153 75t63 179t-63 179t-153 75zM308 16q-51 0 -92 21q-40 20 -75 60q-68 79 -68 193t68 193q34 38 75 59q43 22 92 22q50 0 93 -22q41 -21 75 -59q68 -79 68 -193t-68 -193q-35 -40 -75 -60q-41 -21 -93 -21z "/>
<glyph glyph-name="p" horiz-adv-x="524" unicode="p" d="M127 44q15 6 36 6h41q103 0 176 73t73 177t-72.5 176.5t-176.5 72.5h-97v-513zM395 490q78 -78 78 -190q0 -113 -78 -191q-79 -79 -191 -79h-41q-30 0 -44 -15q-6 -7 -9 -15t-3 -13v-5v-167h-20v754h117q112 0 191 -79z"/>
<glyph glyph-name="q" horiz-adv-x="521" unicode="q" d="M439 549h-97q-104 0 -176.5 -72.5t-72.5 -176.5t73 -177t176 -73h41q21 0 36 -6l20 -8v513zM342 569h117v-754h-20v167q0 21 -11 33q-14 15 -45 15h-41q-111 0 -190 79t-79 191q0 111 79 190t190 79z"/>
<glyph glyph-name="r" horiz-adv-x="308" unicode="r" d="M103 15h-20v343q0 84 56 145q49 54 120 60v-20q-67 -7 -111.5 -60t-44.5 -125v-343z"/>
<glyph glyph-name="s" horiz-adv-x="486" unicode="s" d="M258 15q-72 0 -117 20q-35 16 -63 52l-6 8l16 12l6 -8q24 -30 59 -47t105 -17q72 0 117 35t45 96q0 54 -47 82q-31 18 -114 39q-88 22 -120 42q-59 35 -59 101q0 60 41 95q45 39 137 39q88 0 144 -73l6 -7l-16 -13l-6 8q-49 65 -128 65q-75 0 -116.5 -28.5t-41.5 -85.5 q0 -55 49 -84q33 -19 115 -40q88 -22 119 -41q57 -35 57 -99q0 -67 -46 -107q-50 -44 -136 -44z"/>
<glyph glyph-name="t" horiz-adv-x="316" unicode="t" d="M105 221q0 -73 45.5 -126t111.5 -59v-20q-70 6 -121 60q-56 61 -56 145v548h20v-230l21 8q15 6 36 6h100v-20h-100q-31 0 -45 -15q-12 -13 -12 -31v-266z"/>
<glyph glyph-name="u" horiz-adv-x="521" unicode="u" d="M273 15q-80 0 -135 60q-56 61 -56 146v343h20v-343q0 -76 50 -131t121 -55t121 55t50 131v343h20v-343q0 -85 -56 -146q-55 -60 -135 -60z"/>
<glyph glyph-name="v" horiz-adv-x="541" unicode="v" d="M296 15h-26l-204 549h21l196 -526l196 526h22z"/>
<glyph glyph-name="w" horiz-adv-x="833" unicode="w" d="M449 495l141 -455l196 524h21l-204 -549h-26l-141 454l-140 -454h-26l-204 549h21l195 -524l142 455h25z"/>
<glyph glyph-name="x" horiz-adv-x="547" unicode="x" d="M497 564l-199 -274l199 -275h-23l-187 259l-187 -259h-23l199 275l-199 274h23l187 -259l187 259h23z"/>
<glyph glyph-name="y" horiz-adv-x="545" unicode="y" d="M485 564h20l-232 -621q-20 -57 -66 -92q-47 -36 -106 -36h-9v18h9q52 0 94.5 32t60.5 85l3 8q4 12 4 30q0 22 -8 56q-3 13 -7 26t-6 20l-2 8l-174 466h19l172 -460q2 -2 12 -41l12 -46z"/>
<glyph glyph-name="z" horiz-adv-x="532" unicode="z" d="M474 15h-409v21l403 508h-384v20h410v-21l-404 -508h384v-20z"/>
<glyph glyph-name="braceleft" horiz-adv-x="388" unicode="{" d="M328 -109q-78 0 -104 63q-15 36 -17 144q-2 122 -27.5 168.5t-88.5 49.5h-28v27l28 1h1q63 3 88 49.5t27 168.5q2 108 17 144q26 63 104 63h4h14v-28h-15q-1 0 -1 0.5t-1 0.5q-61 0 -79 -46q-13 -32 -15 -135q-3 -134 -32 -185q-11 -20 -30 -34l-15 -12l15 -12 q17 -13 30 -35q29 -51 32 -184q2 -103 15 -135q18 -46 79 -46q1 0 1 0.5t1 0.5h15v-28h-14h-4z"/>
<glyph glyph-name="bar" horiz-adv-x="190" unicode="|" d="M90 -121v890h20v-890h-20z"/>
<glyph glyph-name="braceright" horiz-adv-x="389" unicode="}" d="M82 -109h-4h-14v28h15q1 0 1 -0.5t1 -0.5q61 0 79 46q13 32 15 135q3 133 32 184q13 22 30 35l15 12l-15 12q-19 14 -30 34q-29 51 -32 185q-2 103 -15 135q-18 46 -78 46h-1q-1 -1 -2 -1h-15v28h14h4q78 0 104 -63q15 -36 17 -144q2 -122 27.5 -168.5t88.5 -49.5h28v-28 h-28q-63 -3 -88.5 -49.5t-27.5 -168.5q-2 -108 -17 -144q-26 -63 -104 -63z"/>
<glyph glyph-name="asciitilde" horiz-adv-x="532" unicode="~" d="M372 281q-38 0 -107 55q-3 3 -13 10.5t-14.5 11t-13.5 9.5t-15.5 9t-15 5.5t-15.5 2.5t-11 -1q-35 -8 -67 -76l-4 -9l-18 9l4 9q35 76 80 86q10 2 15 2q20 0 45 -13q18 -10 56 -40q61 -50 93 -50q5 0 13 2q42 11 81 93l4 9l18 -9l-4 -9q-21 -47 -46 -73q-23 -25 -48 -31 q-12 -2 -17 -2z"/>
<glyph glyph-name="exclamdown" horiz-adv-x="194" unicode="¡" d="M104 701q-32 0 -32 34q0 16 8.5 25t22.5 9q32 0 32 -34t-31 -34zM93 15v441h20v-441h-20z"/>
<glyph glyph-name="cent" horiz-adv-x="483" unicode="¢" d="M423 99l6 8l16 -12l-6 -8q-46 -61 -128 -70l-13 -2v-52h-20v52l-13 1q-36 4 -69 21q-40 21 -72 59q-66 82 -66 194q0 113 66 193q32 38 72 59q33 16 69 21l13 1v52h20v-52l13 -2q82 -9 128 -70l6 -8l-16 -12l-6 8q-47 64 -138 64q-87 0 -147 -75t-60 -179q0 -105 60 -180 t147 -75q91 0 138 64z"/>
<glyph glyph-name="sterling" horiz-adv-x="574" unicode="£" d="M540 15h-476v20q40 6 61 57q32 78 35 249v16h-79v20h79v15q0 108 16 190q15 72 43 114q26 37 67 54q32 13 79 13q53 0 95 -41q33 -31 63 -93l-18 -8q-26 56 -62.5 89t-77.5 33q-88 0 -129 -58q-56 -80 -56 -293v-15h222v-20h-222v-15q-3 -179 -36 -258q-6 -15 -13 -25 l-15 -23h424v-21z"/>
<glyph glyph-name="currency" horiz-adv-x="560" unicode="¤" d="M296 178q70 0 119 55t49 131t-49 131t-119 55t-119 -55t-49 -131t49 -131t119 -55zM484 364q0 -66 -33 -117l-7 -10l70 -70l-14 -14l-68 68l-11 -11q-54 -52 -125 -52t-125 52l-11 11l-68 -68l-14 14l70 70l-7 10q-33 51 -33 117q0 65 34 118l7 10l-72 72l14 14l70 -70 l11 10q54 52 124 52q71 0 124 -51l11 -11l69 70l14 -14l-71 -71l7 -10q34 -53 34 -119z"/>
<glyph glyph-name="yen" horiz-adv-x="664" unicode="¥" d="M375 403q-4 -8 -9 -34l-5 -18h165v-19h-166l-1 -15v-60v-16h167v-19h-167v-207h-19v207h-169v19h169v16v60l-1 15h-168v19h166l-4 18q-4 23 -9 34l-1 2l-258 347l15 12l269 -363l270 363l15 -12l-258 -347z"/>
<glyph glyph-name="section" horiz-adv-x="475" unicode="§" d="M302 270q52 6 83 38t31 82q0 49 -33.5 72t-103.5 42q-4 1 -11.5 3t-11.5 3l-2 1h-24q-70 0 -105 -32q-28 -25 -28 -74q0 -50 33.5 -73t104.5 -42q38 -11 60 -19l4 -1h3zM436 390q0 -60 -40 -100q-14 -14 -40 -26l-21 -10l17 -15q35 -32 35 -82q0 -60 -40 -100 q-42 -42 -117 -42q-64 0 -97.5 16.5t-57.5 51.5l-6 8l16 12l6 -8q20 -29 50 -44.5t89 -15.5q62 0 99.5 33t37.5 89q0 62 -68 91l-3 1h-2q-23 6 -87 28.5t-80 32.5q-50 32 -50 95q0 57 35 89q21 19 51 28l29 9l-24 18q-43 33 -43 89t36 89q40 37 118 37q76 0 124 -68l6 -9 l-16 -11l-6 8q-41 60 -108 60q-71 0 -105 -31q-29 -26 -29 -75q0 -50 34 -73t105 -42t102 -39q50 -33 50 -94z"/>
<glyph glyph-name="guillemotleft" horiz-adv-x="441" unicode="«" d="M366 152l-140 137l140 139v-29l-111 -109l111 -110v-28zM209 152l-139 138l140 138v-29l-111 -109l110 -109v-29z"/>
<glyph glyph-name="uni00B5" horiz-adv-x="522" unicode="µ" d="M452 769h20v-335q0 -84 -56 -145t-135 -61h-122h-2q-19 0 -32 -12q-15 -15 -15 -45v-156h-20v754h20v-535l21 9q13 5 29 5h121q71 0 121 55t50 131v335z"/>
<glyph glyph-name="paragraph" horiz-adv-x="611" unicode="¶" d="M483 423q19 0 32 -6l20 -8v340h-67v-326h15zM247 423h201v326l-201 -1q-67 0 -114.5 -47.5t-47.5 -115.5q0 -67 47.5 -114.5t114.5 -47.5zM555 769v-754h-20v344q-4 22 -11 29q-13 13 -40 15h-16v-388h-20v388h-201q-75 0 -128.5 53t-53.5 129t53 129.5t129 53.5z"/>
<glyph glyph-name="guillemotright" horiz-adv-x="445" unicode="»" d="M79 151v29l111 110l-111 109v29l140 -139zM236 152v29l111 109l-111 109v29l139 -138z"/>
<glyph glyph-name="questiondown" horiz-adv-x="489" unicode="¿" d="M116 65q-47 44 -47 123q0 90 42 143q24 30 84 60q40 20 58 38t18 53v9h19v-9q0 -23 -6.5 -40.5t-20.5 -30t-25.5 -19.5t-33.5 -18q-27 -14 -42.5 -24t-35.5 -31t-29 -53.5t-9 -77.5q0 -76 49 -115t141 -39q95 0 154 86l5 8l15 -11l-5 -8q-65 -94 -169 -94q-109 0 -162 50 zM273 703q-29 0 -29 33t30 33q14 0 22 -9t8 -24t-8.5 -24t-22.5 -9z"/>
<glyph glyph-name="Agrave" horiz-adv-x="649" unicode="À" d="M261 913l12 16l141 -108l-12 -16zM409 324q47 0 64 14l8 6l-140 402l-153 -439l29 10q21 7 44 7h148zM354 769l263 -754h-21l-107 308l-16 -8q-24 -11 -64 -11h-148q-45 0 -74 -27q-11 -11 -18 -25h-1l-82 -237h-21l263 754h26z"/>
<glyph glyph-name="Aacute" horiz-adv-x="649" unicode="Á" d="M237 821l141 108l12 -16l-141 -108zM409 324q47 0 64 14l8 6l-140 402l-153 -439l29 10q21 7 44 7h148zM354 769l263 -754h-21l-107 308l-16 -8q-24 -11 -64 -11h-148q-45 0 -74 -27q-11 -11 -18 -25h-1l-82 -237h-21l263 754h26z"/>
<glyph glyph-name="Acircumflex" horiz-adv-x="649" unicode="Â" d="M348 918l-163 -114l-12 17l175 122l159 -122l-12 -16zM409 324q47 0 64 14l8 6l-140 402l-153 -439l29 10q21 7 44 7h148zM354 769l263 -754h-21l-107 308l-16 -8q-24 -11 -64 -11h-148q-45 0 -74 -27q-11 -11 -18 -25h-1l-82 -237h-21l263 754h26z"/>
<glyph glyph-name="Atilde" horiz-adv-x="649" unicode="Ã" d="M251 846l-4 -9l-18 9l4 9q18 41 45 48q3 1 9 1q20 0 56 -29q1 -1 8 -7t11 -9t11 -6t14 -3q5 0 7 1q19 4 39 46l5 9l18 -9l-4 -9q-23 -50 -53 -57q-3 -1 -10 -1q-21 0 -59 30q-27 24 -41 24q-1 0 -3.5 -0.5t-3.5 -0.5q-15 -4 -31 -37zM409 324q47 0 64 14l8 6l-140 402 l-153 -439l29 10q21 7 44 7h148zM354 769l263 -754h-21l-107 308l-16 -8q-24 -11 -64 -11h-148q-45 0 -74 -27q-11 -11 -18 -25h-1l-82 -237h-21l263 754h26z"/>
<glyph glyph-name="Adieresis" horiz-adv-x="650" unicode="Ä" d="M431 825q-10 0 -10 10v14q0 10 10 10t10 -10v-14q0 -10 -10 -10zM251 825q-10 0 -10 10v14q0 10 10 10t10 -10v-14q0 -10 -10 -10zM409 324q47 0 64 14l8 6l-140 402l-153 -439l29 10q21 7 44 7h148zM354 769l263 -754h-21l-107 308l-16 -8q-24 -11 -64 -11h-148 q-45 0 -74 -27q-11 -11 -18 -25h-1l-82 -237h-21l263 754h26z"/>
<glyph glyph-name="Aring" horiz-adv-x="649" unicode="Å" d="M409 324q47 0 64 14l8 6l-140 402l-153 -439l29 10q21 7 44 7h148zM291 865q0 -20 14.5 -34.5t34.5 -14.5t34.5 14.5t14.5 34.5t-14.5 34.5t-34.5 14.5t-34.5 -14.5t-14.5 -34.5zM328 769h26l263 -754h-21l-107 308l-16 -8q-24 -11 -64 -11h-148q-45 0 -74 -27 q-11 -11 -18 -25h-1l-82 -237h-21zM340 796h-2l-16 3q-22 6 -36.5 24t-14.5 42q0 29 20.5 49t48.5 20t48.5 -20t20.5 -49q0 -24 -14.5 -42t-36.5 -24z"/>
<glyph glyph-name="AE" horiz-adv-x="817" unicode="Æ" d="M272 318q53 0 69 19l3 4v414l-158 -453l29 10q18 6 45 6h12zM781 16l-437 -1v296l-19 -6q-25 -7 -53 -7h-12q-67 0 -93 -52l-81 -230h-21l263 753h453v-20h-417v-340l21 8q15 6 36 6h360v-20h-360q-31 0 -45 -15q-12 -13 -12 -31v-322l417 1v-20z"/>
<glyph glyph-name="Ccedilla" horiz-adv-x="663" unicode="Ç" d="M603 173l6 10l17 -11l-5 -9q-43 -69 -105 -108q-54 -34 -116 -39l-14 -2v-46l10 -4q16 -7 28 -21q18 -23 18 -56t-18 -56q-19 -24 -48 -24q-34 0 -54 32l-5 9l17 10l6 -8q14 -23 36 -23q21 0 33.5 18.5t12.5 41.5t-12.5 41.5t-33.5 18.5h-10v36v32l-14 1q-46 4 -92 29 q-56 29 -97 81q-88 110 -88 266t88 266q41 52 97 81q57 30 119 30q75 0 137 -40q62 -39 105 -108l5 -9l-17 -10l-6 8q-41 66 -99.5 102.5t-124.5 36.5q-118 0 -201 -105t-83 -252q0 -146 82.5 -251t201.5 -105q67 0 125 36t99 101z"/>
<glyph glyph-name="Egrave" horiz-adv-x="574" unicode="È" d="M525 35v-20l-437 -1v755h437v-20h-417v-340l20 8q15 6 36 6h361v-20h-361q-29 0 -44 -16q-12 -13 -12 -30v-323zM230 929l12 16l141 -108l-12 -16z"/>
<glyph glyph-name="Eacute" horiz-adv-x="574" unicode="É" d="M525 35v-20l-437 -1v755h437v-20h-417v-340l20 8q15 6 36 6h361v-20h-361q-29 0 -44 -16q-12 -13 -12 -30v-323zM230 837l141 108l12 -16l-141 -108z"/>
<glyph glyph-name="Ecircumflex" horiz-adv-x="574" unicode="Ê" d="M525 35v-20l-437 -1v755h437v-20h-417v-340l20 8q15 6 36 6h361v-20h-361q-29 0 -44 -16q-12 -13 -12 -30v-323zM314 934l-163 -113l-11 16l175 122l158 -121l-12 -16z"/>
<glyph glyph-name="Edieresis" horiz-adv-x="574" unicode="Ë" d="M525 35v-20l-437 -1v755h437v-20h-417v-340l20 8q15 6 36 6h361v-20h-361q-29 0 -44 -16q-12 -13 -12 -30v-323zM399 825q-10 0 -10 10v14q0 10 10 10t10 -10v-14q0 -10 -10 -10zM219 825q-10 0 -10 10v14q0 10 10 10t10 -10v-14q0 -10 -10 -10z"/>
<glyph glyph-name="Igrave" horiz-adv-x="260" unicode="Ì" d="M103 15v754h20v-754h-20zM202 821l-141 108l12 16l141 -108z"/>
<glyph glyph-name="Iacute" horiz-adv-x="257" unicode="Í" d="M126 15v754h20v-754h-20zM71 821l-12 16l141 108l12 -16z"/>
<glyph glyph-name="Icircumflex" horiz-adv-x="429" unicode="Î" d="M216 15v754h20v-754h-20zM234 959l158 -121l-12 -16l-147 112l-163 -113l-11 16z"/>
<glyph glyph-name="Idieresis" horiz-adv-x="291" unicode="Ï" d="M143 15v754h20v-754h-20zM243 859q10 0 10 -10v-14q0 -10 -10 -10t-10 10v14q0 10 10 10zM63 859q10 0 10 -10v-14q0 -10 -10 -10t-10 10v14q0 10 10 10z"/>
<glyph glyph-name="Ntilde" horiz-adv-x="603" unicode="Ñ" d="M526 769h18v-754h-21l-417 723v-723h-18v754h22l416 -722v722zM225 832l-4 -10l-18 9l4 9q18 41 45 48q3 1 9 1q20 0 56 -29q31 -25 45 -25q4 0 6 1q20 4 40 46l4 9l18 -9l-4 -9q-23 -50 -53 -57q-3 -1 -10 -1q-21 0 -59 30q-27 24 -41 24q-1 0 -3.5 -0.5t-3.5 -0.5 q-16 -4 -31 -36z"/>
<glyph glyph-name="Ograve" d="M378 35q118 0 200.5 105t82.5 252t-82.5 252t-200.5 105t-200.5 -105t-82.5 -252t82.5 -252t200.5 -105zM593 658q88 -112 88 -266t-88 -266q-42 -52 -96 -81q-57 -30 -119 -30t-119 30q-54 29 -96 81q-88 112 -88 266t88 266q42 52 96 81q57 30 119 30t119 -30 q54 -29 96 -81zM301 929l13 16l140 -108l-12 -16z" unicode="Ò"/>
<glyph glyph-name="Oacute" d="M378 35q118 0 200.5 105t82.5 252t-82.5 252t-200.5 105t-200.5 -105t-82.5 -252t82.5 -252t200.5 -105zM593 658q88 -112 88 -266t-88 -266q-42 -52 -96 -81q-57 -30 -119 -30t-119 30q-54 29 -96 81q-88 112 -88 266t88 266q42 52 96 81q57 30 119 30t119 -30 q54 -29 96 -81zM301 837l141 108l12 -16l-140 -108z" unicode="Ó"/>
<glyph glyph-name="Ocircumflex" d="M378 35q118 0 200.5 105t82.5 252t-82.5 252t-200.5 105t-200.5 -105t-82.5 -252t82.5 -252t200.5 -105zM593 658q88 -112 88 -266t-88 -266q-42 -52 -96 -81q-57 -30 -119 -30t-119 30q-54 29 -96 81q-88 112 -88 266t88 266q42 52 96 81q57 30 119 30t119 -30 q54 -29 96 -81zM385 934l-162 -113l-12 16l175 122l159 -121l-13 -16z" unicode="Ô"/>
<glyph glyph-name="Otilde" d="M378 35q118 0 200.5 105t82.5 252t-82.5 252t-200.5 105t-200.5 -105t-82.5 -252t82.5 -252t200.5 -105zM593 658q88 -112 88 -266t-88 -266q-42 -52 -96 -81q-57 -30 -119 -30t-119 30q-54 29 -96 81q-88 112 -88 266t88 266q42 52 96 81q57 30 119 30t119 -30 q54 -29 96 -81zM287 832l-5 -10l-18 9l5 9q18 41 45 48q3 1 9 1q19 0 55 -29q31 -25 45 -25q5 0 7 1q19 4 39 46l4 9l19 -9l-5 -9q-23 -51 -52 -57q-3 -1 -10 -1q-21 0 -59 30q-27 24 -42 24q-1 0 -3 -0.5t-3 -0.5q-16 -4 -31 -36z" unicode="Õ"/>
<glyph glyph-name="Odieresis" d="M378 35q118 0 200.5 105t82.5 252t-82.5 252t-200.5 105t-200.5 -105t-82.5 -252t82.5 -252t200.5 -105zM593 658q88 -112 88 -266t-88 -266q-42 -52 -96 -81q-57 -30 -119 -30t-119 30q-54 29 -96 81q-88 112 -88 266t88 266q42 52 96 81q57 30 119 30t119 -30 q54 -29 96 -81zM468 825q-10 0 -10 10v14q0 10 10 10t10 -10v-14q0 -10 -10 -10zM288 825q-10 0 -10 10v14q0 10 10 10t10 -10v-14q0 -10 -10 -10z" unicode="Ö"/>
<glyph glyph-name="multiply" horiz-adv-x="171" unicode="×"/>
<glyph glyph-name="Oslash" horiz-adv-x="725" unicode="Ø" d="M665 392q0 135 -71 237l-12 17l-388 -521l9 -9q78 -81 179 -81q118 0 200.5 105t82.5 252zM99 392q0 -131 70 -234l11 -18l388 521l-9 9q-77 79 -177 79q-118 0 -200.5 -105t-82.5 -252zM674 769l-80 -107l7 -9q84 -109 84 -261q0 -154 -88 -266q-42 -52 -96 -81 q-57 -30 -119 -30t-119 30q-37 19 -69 51l-12 12l-70 -93h-25l81 109l-7 9q-82 108 -82 259q0 154 88 266q42 52 96 81q57 30 119 30t119 -30q36 -20 67 -49l12 -12l68 91h26z"/>
<glyph glyph-name="Ugrave" horiz-adv-x="604" unicode="Ù" d="M529 769h20v-521q0 -96 -68 -164t-164 -68t-164 68t-68 164v521h20v-521q0 -88 62 -150t150 -62t150 62t62 150v521zM240 929l13 16l141 -108l-13 -16z"/>
<glyph glyph-name="Uacute" horiz-adv-x="604" unicode="Ú" d="M529 769h20v-521q0 -96 -68 -164t-164 -68t-164 68t-68 164v521h20v-521q0 -88 62 -150t150 -62t150 62t62 150v521zM240 837l141 108l13 -16l-141 -108z"/>
<glyph glyph-name="Ucircumflex" horiz-adv-x="604" unicode="Û" d="M529 769h20v-521q0 -96 -68 -164t-164 -68t-164 68t-68 164v521h20v-521q0 -88 62 -150t150 -62t150 62t62 150v521zM325 934l-163 -113l-12 16l175 122l159 -121l-12 -16z"/>
<glyph glyph-name="Udieresis" horiz-adv-x="604" unicode="Ü" d="M529 769h20v-521q0 -96 -68 -164t-164 -68t-164 68t-68 164v521h20v-521q0 -88 62 -150t150 -62t150 62t62 150v521zM407 825q-10 0 -10 10v14q0 10 10 10t10 -10v-14q0 -10 -10 -10zM227 825q-10 0 -10 10v14q0 10 10 10t10 -10v-14q0 -10 -10 -10z"/>
<glyph glyph-name="germandbls" horiz-adv-x="565" unicode="ß" d="M87 15l-1 570q0 78 48 129q51 54 134 54q85 0 134 -54q45 -50 45 -129q0 -67 -41 -102q-23 -19 -79 -36q-33 -9 -40 -14q-10 -8 -12 -15l-2 -11l10 -5q5 -3 16 -6q4 -1 38 -6q83 -11 118 -33q64 -41 64 -138q0 -43 -17 -80q-16 -36 -46 -64q-62 -60 -141 -60 q-84 0 -126 37l17 12q3 -2 17 -10q36 -19 92 -19q73 0 128.5 55.5t55.5 128.5q0 87 -55 121q-33 21 -109 30q-42 6 -53 10q-27 10 -27 33t22 37q11 7 44 16q24 7 38 13t32.5 18.5t27 34.5t8.5 53q0 65 -39.5 114t-119.5 49q-73 0 -117.5 -45t-44.5 -118l1 -570h-20z"/>
<glyph glyph-name="agrave" horiz-adv-x="506" unicode="à" d="M181 747l12 16l141 -108l-12 -16zM429 169v148l-20 -8q-13 -5 -30 -5h-121q-70 0 -122 -41q-50 -40 -50 -94t50 -94q51 -40 122 -40t122 40q49 40 49 94zM380 324q22 0 34 12q13 12 15 40v34q0 57 -48.5 95.5t-114.5 38.5q-91 0 -138 -64l-7 -8l-16 12l6 8q53 72 155 72 q76 0 129 -45q54 -46 54 -109v-6v-24v-4v-207q0 -64 -57 -110q-57 -44 -134 -44q-78 0 -135 44q-57 46 -57 110t57 110q58 45 135 45h122z"/>
<glyph glyph-name="aacute" horiz-adv-x="506" unicode="á" d="M181 655l141 108l12 -16l-141 -108zM429 169v148l-20 -8q-13 -5 -30 -5h-121q-70 0 -122 -41q-50 -40 -50 -94t50 -94q51 -40 122 -40t122 40q49 40 49 94zM380 324q22 0 34 12q13 12 15 40v34q0 57 -48.5 95.5t-114.5 38.5q-91 0 -138 -64l-7 -8l-16 12l6 8 q53 72 155 72q76 0 129 -45q54 -46 54 -109v-6v-24v-4v-207q0 -64 -57 -110q-57 -44 -134 -44q-78 0 -135 44q-57 46 -57 110t57 110q58 45 135 45h122z"/>
<glyph glyph-name="acircumflex" horiz-adv-x="514" unicode="â" d="M283 748l-107 -72l-11 16l118 82l119 -82l-12 -16zM435 169v148l-20 -8q-13 -5 -30 -5h-121q-70 0 -122 -41q-50 -40 -50 -94t50 -94q51 -40 122 -40t122 40q49 40 49 94zM386 324q22 0 34 12q13 12 15 40v34q0 57 -48.5 95.5t-114.5 38.5q-91 0 -138 -64l-7 -8l-16 12 l6 8q53 72 155 72q76 0 129 -45q54 -46 54 -109v-6v-24v-4v-207q0 -64 -57 -110q-57 -44 -134 -44q-78 0 -135 44q-57 46 -57 110t57 110q58 45 135 45h122z"/>
<glyph glyph-name="atilde" horiz-adv-x="506" unicode="ã" d="M173 707l-5 -9l-18 9l5 9q18 41 45 48q3 1 9 1q19 0 55 -29q31 -25 45 -25h7q19 4 39 47l5 9l18 -9l-5 -9q-23 -51 -52 -57q-3 -1 -10 -1q-22 0 -59 29q-1 1 -5.5 5t-7.5 7t-8.5 6.5t-10.5 5t-10 1.5q-1 0 -3 -0.5t-3 -0.5q-15 -4 -31 -37zM429 169v148l-20 -8 q-13 -5 -30 -5h-121q-70 0 -122 -41q-50 -40 -50 -94t50 -94q51 -40 122 -40t122 40q49 40 49 94zM380 324q22 0 34 12q13 12 15 40v34q0 57 -48.5 95.5t-114.5 38.5q-91 0 -138 -64l-7 -8l-16 12l6 8q53 72 155 72q76 0 129 -45q54 -46 54 -109v-6v-24v-4v-207 q0 -64 -57 -110q-57 -44 -134 -44q-78 0 -135 44q-57 46 -57 110t57 110q58 45 135 45h122z"/>
<glyph glyph-name="adieresis" horiz-adv-x="506" unicode="ä" d="M360 689q-10 0 -10 10v13q0 11 10 11t10 -11v-13q0 -10 -10 -10zM180 689q-10 0 -10 10v13q0 11 10 11t10 -11v-13q0 -10 -10 -10zM429 169v148l-20 -8q-13 -5 -30 -5h-121q-70 0 -122 -41q-50 -40 -50 -94t50 -94q51 -40 122 -40t122 40q49 40 49 94zM380 324 q22 0 34 12q13 12 15 40v34q0 57 -48.5 95.5t-114.5 38.5q-91 0 -138 -64l-7 -8l-16 12l6 8q53 72 155 72q76 0 129 -45q54 -46 54 -109v-6v-24v-4v-207q0 -64 -57 -110q-57 -44 -134 -44q-78 0 -135 44q-57 46 -57 110t57 110q58 45 135 45h122z"/>
<glyph glyph-name="aring" horiz-adv-x="506" unicode="å" d="M271 746q-20 0 -34.5 -14.5t-14.5 -34.5t14.5 -34.5t34.5 -14.5t34.5 14.5t14.5 34.5t-14.5 34.5t-34.5 14.5zM271 628q-29 0 -49 20t-20 49t20 49t49 20t49 -20t20 -49t-20 -49t-49 -20zM429 169v148l-20 -8q-13 -5 -30 -5h-121q-70 0 -122 -41q-50 -40 -50 -94t50 -94 q51 -40 122 -40t122 40q49 40 49 94zM380 324q22 0 34 12q13 12 15 40v34q0 57 -48.5 95.5t-114.5 38.5q-91 0 -138 -64l-7 -8l-16 12l6 8q53 72 155 72q76 0 129 -45q54 -46 54 -109v-6v-24v-4v-207q0 -64 -57 -110q-57 -44 -134 -44q-78 0 -135 44q-57 46 -57 110t57 110 q58 45 135 45h122z"/>
<glyph glyph-name="ae" horiz-adv-x="853" unicode="æ" d="M381 75q49 40 49 95q-3 119 -3 124l1 21l-21 -7q-12 -4 -27 -4h-121q-70 0 -122 -41q-50 -40 -50 -94t50 -94q51 -40 122 -40t122 40zM654 544q-76 0 -132.5 -59.5t-70.5 -147.5l-4 -25l24 8q10 4 23 4h137q82 0 129 37q40 32 40 78q0 43 -39 74t-107 31zM808 108l16 -12 l-6 -8q-54 -72 -163 -72q-96 0 -162 81q-13 16 -23 32l-16 27l-11 -30q-14 -38 -50 -67q-57 -44 -134 -44q-78 0 -135 44q-57 46 -57 110t57 110q58 45 134 45h4q5 -1 11.5 -1.5t14.5 -0.5t18.5 -0.5t20.5 -0.5q73 0 88 15q13 13 15 40v34q0 57 -48.5 95.5t-114.5 38.5 q-91 0 -138 -64l-7 -8l-16 12l6 8q53 72 155 72q76 0 129 -45q35 -29 47 -66l11 -30l16 27q9 16 23 33q32 38 72 59q41 22 89 22q76 0 123 -38q43 -35 43 -87q0 -55 -48 -94q-52 -41 -141 -41h-14h-122h-3q-17 0 -27 -10q-15 -15 -15 -39v-11q14 -89 71 -148.5t134 -59.5 q99 0 147 64z"/>
<glyph glyph-name="ccedilla" horiz-adv-x="507" unicode="ç" d="M438 99l6 8l16 -12l-6 -8q-47 -63 -137 -71l-14 -2v-46l10 -3q15 -6 27 -21q19 -24 19 -55q0 -32 -19 -56q-20 -24 -47 -24q-33 0 -53 32l-5 8l17 11l5 -9q14 -22 36 -22q21 0 33.5 18.5t12.5 41.5t-12.5 41t-33.5 18h-10v67l-13 2q-29 4 -59 20q-40 21 -72 59 q-66 80 -66 193q0 112 66 194q32 38 72 59q41 22 89 22q100 0 154 -72l6 -8l-16 -12l-6 8q-47 64 -138 64q-87 0 -147 -75t-60 -180q0 -104 60 -179t147 -75q91 0 138 64z"/>
<glyph glyph-name="egrave" horiz-adv-x="514" unicode="è" d="M197 747l12 16l141 -108l-12 -16zM299 544q-76 0 -132.5 -59.5t-70.5 -147.5l-4 -25l24 8q10 4 23 4h136q82 0 129 37q41 33 41 78q0 43 -39 74t-107 31zM453 108l16 -12l-6 -8q-54 -72 -164 -72q-96 0 -162 81q-46 57 -59 128l-3 21q-3 21 -3 44q0 113 66 193 q32 38 72 59q41 22 89 22q75 0 123 -38q43 -35 43 -87q0 -55 -48 -94q-52 -41 -142 -41h-13h-123h-2q-19 0 -28 -10q-15 -15 -15 -39v-5v-4l1 -1q13 -89 70 -149t134 -60q100 0 148 64z"/>
<glyph glyph-name="eacute" horiz-adv-x="514" unicode="é" d="M197 655l141 108l12 -16l-141 -108zM299 544q-76 0 -132.5 -59.5t-70.5 -147.5l-4 -25l24 8q10 4 23 4h136q82 0 129 37q41 33 41 78q0 43 -39 74t-107 31zM453 108l16 -12l-6 -8q-54 -72 -164 -72q-96 0 -162 81q-46 57 -59 128l-3 21q-3 21 -3 44q0 113 66 193 q32 38 72 59q41 22 89 22q75 0 123 -38q43 -35 43 -87q0 -55 -48 -94q-52 -41 -142 -41h-13h-123h-2q-19 0 -28 -10q-15 -15 -15 -39v-5v-4l1 -1q13 -89 70 -149t134 -60q100 0 148 64z"/>
<glyph glyph-name="ecircumflex" horiz-adv-x="515" unicode="ê" d="M303 748l-107 -72l-11 17l118 82l119 -82l-11 -17zM305 544q-76 0 -132.5 -59.5t-70.5 -147.5l-4 -25l24 8q10 4 23 4h136q82 0 129 37q41 33 41 78q0 43 -39 74t-107 31zM459 108l16 -12l-6 -8q-54 -72 -164 -72q-96 0 -162 81q-46 57 -59 128l-3 21q-3 21 -3 44 q0 113 66 193q32 38 72 59q41 22 89 22q75 0 123 -38q43 -35 43 -87q0 -55 -48 -94q-52 -41 -142 -41h-16h-120h-2q-19 0 -28 -10q-15 -15 -15 -39v-5v-4l1 -1q13 -89 70 -149t134 -60q100 0 148 64z"/>
<glyph glyph-name="edieresis" horiz-adv-x="515" unicode="ë" d="M391 689q-10 0 -10 10v13q0 11 10 11t10 -11v-13q0 -10 -10 -10zM211 689q-10 0 -10 10v13q0 11 10 11t10 -11v-13q0 -10 -10 -10zM300 544q-76 0 -132.5 -59.5t-70.5 -147.5l-4 -25l24 8q10 4 23 4h136q82 0 129 37q41 33 41 78q0 43 -39 74t-107 31zM454 108l16 -12 l-6 -8q-54 -72 -164 -72q-96 0 -162 81q-46 57 -59 128l-3 21q-3 21 -3 44q0 113 66 193q32 38 72 59q41 22 89 22q76 0 123 -38q43 -35 43 -87q0 -55 -48 -94q-52 -41 -142 -41h-13h-123h-2q-19 0 -28 -10q-15 -15 -15 -39q0 -3 0.5 -5t0.5 -4v-1q13 -89 70 -149t134 -60 q100 0 148 64z"/>
<glyph glyph-name="igrave" horiz-adv-x="266" unicode="ì" d="M205 639l-141 108l12 16l141 -108zM123 15v549h20v-549h-20z"/>
<glyph glyph-name="iacute" horiz-adv-x="265" unicode="í" d="M73 639l-12 16l141 108l12 -16zM139 15v549h20v-549h-20z"/>
<glyph glyph-name="icircumflex" horiz-adv-x="345" unicode="î" d="M182 748l-108 -72l-11 16l118 82l119 -82l-11 -16zM172 15v549h20v-549h-20z"/>
<glyph glyph-name="idieresis" horiz-adv-x="302" unicode="ï" d="M247 723q10 0 10 -11v-13q0 -10 -10 -10t-10 10v13q0 11 10 11zM67 723q10 0 10 -11v-13q0 -10 -10 -10t-10 10v13q0 11 10 11zM148 15v549h20v-549h-20z"/>
<glyph glyph-name="eth" horiz-adv-x="171" unicode="ð"/>
<glyph glyph-name="ntilde" horiz-adv-x="525" unicode="ñ" d="M187 707l-4 -9l-18 9l4 9q18 41 45 48q3 1 9 1q20 0 56 -29q31 -25 45 -25h6q19 4 39 47l5 9l18 -9l-4 -9q-23 -50 -53 -57q-3 -1 -10 -1q-22 0 -59 29l-6 6q-7 7 -11 9.5t-11 6t-13 3.5q-1 0 -3.5 -0.5t-3.5 -0.5q-15 -4 -31 -37zM409 504q56 -61 56 -146v-343h-20v343 q0 76 -50 131t-121 55t-121 -55t-50 -131v-343h-20v343q0 85 56 146q55 60 135 60t135 -60z"/>
<glyph glyph-name="ograve" horiz-adv-x="585" unicode="ò" d="M228 747l12 16l141 -108l-12 -16zM304 36q89 0 151 73.5t62 176.5t-62 177t-151 74t-150.5 -74t-61.5 -177t61.5 -176.5t150.5 -73.5zM469 477q68 -81 68 -191t-68 -191q-30 -36 -74 -58q-43 -21 -91 -21t-91 21q-42 21 -73 58q-68 81 -68 191t68 191q31 37 73 58 q46 22 91 22t91 -22q44 -22 74 -58z"/>
<glyph glyph-name="oacute" horiz-adv-x="585" unicode="ó" d="M218 655l141 108l12 -16l-141 -108zM304 36q89 0 151 73.5t62 176.5t-62 177t-151 74t-150.5 -74t-61.5 -177t61.5 -176.5t150.5 -73.5zM469 477q68 -81 68 -191t-68 -191q-30 -36 -74 -58q-43 -21 -91 -21t-91 21q-42 21 -73 58q-68 81 -68 191t68 191q31 37 73 58 q46 22 91 22t91 -22q44 -22 74 -58z"/>
<glyph glyph-name="ocircumflex" horiz-adv-x="593" unicode="ô" d="M310 748l-107 -72l-11 17l118 82l119 -82l-11 -17zM310 36q89 0 151 73.5t62 176.5t-62 177t-151 74t-150.5 -74t-61.5 -177t61.5 -176.5t150.5 -73.5zM475 477q68 -81 68 -191t-68 -191q-30 -36 -74 -58q-43 -21 -91 -21t-91 21q-42 21 -73 58q-68 81 -68 191t68 191 q31 37 73 58q46 22 91 22t91 -22q44 -22 74 -58z"/>
<glyph glyph-name="otilde" horiz-adv-x="585" unicode="õ" d="M213 707l-4 -9l-18 9l4 9q18 41 45 48q3 1 9 1q20 0 56 -29q31 -25 45 -25h6q20 4 40 47l4 9l18 -9l-4 -9q-23 -50 -53 -57q-3 -1 -10 -1q-22 0 -59 29l-6 6q-7 7 -11 9.5t-11 6t-13 3.5q-1 0 -3 -0.5t-3 -0.5q-16 -4 -32 -37zM304 36q89 0 151 73.5t62 176.5t-62 177 t-151 74t-150.5 -74t-61.5 -177t61.5 -176.5t150.5 -73.5zM469 477q68 -81 68 -191t-68 -191q-30 -36 -74 -58q-43 -21 -91 -21t-91 21q-42 21 -73 58q-68 81 -68 191t68 191q31 37 73 58q46 22 91 22t91 -22q44 -22 74 -58z"/>
<glyph glyph-name="odieresis" horiz-adv-x="585" unicode="ö" d="M394 689q-10 0 -10 10v13q0 11 10 11t10 -11v-13q0 -10 -10 -10zM214 689q-10 0 -10 10v13q0 11 10 11t10 -11v-13q0 -10 -10 -10zM304 36q89 0 151 73.5t62 176.5t-62 177t-151 74t-150.5 -74t-61.5 -177t61.5 -176.5t150.5 -73.5zM469 477q68 -81 68 -191t-68 -191 q-30 -36 -74 -58q-43 -21 -91 -21t-91 21q-42 21 -73 58q-68 81 -68 191t68 191q31 37 73 58q46 22 91 22t91 -22q44 -22 74 -58z"/>
<glyph glyph-name="divide" horiz-adv-x="577" unicode="÷" d="M296 515q-30 0 -30 33q0 15 8.5 24t22.5 9q30 0 30 -33t-31 -33zM74 293v19h452v-19h-452zM297 81q30 0 30 -33t-31 -33q-30 0 -30 33q0 15 8.5 24t22.5 9z"/>
<glyph glyph-name="oslash" horiz-adv-x="589" unicode="ø" d="M520 286q0 94 -53 165l-12 17l-281 -377l11 -10q54 -45 122 -45q89 0 151 73.5t62 176.5zM95 286q0 -94 53 -165l12 -16l280 377l-10 9q-54 46 -123 46q-89 0 -150.5 -74t-61.5 -177zM527 564l-60 -81l7 -9q66 -80 66 -188q0 -110 -68 -191q-30 -36 -74 -58 q-44 -21 -91 -21t-91 21q-20 9 -42 28l-12 9l-44 -59h-25l55 74l-8 9q-65 77 -65 188q0 110 68 191q31 37 73 58q46 22 91 22t91 -22q22 -11 42 -27l13 -10l49 66h25z"/>
<glyph glyph-name="ugrave" horiz-adv-x="521" unicode="ù" d="M196 747l13 16l141 -108l-13 -16zM444 564h20v-343q0 -85 -56 -146q-55 -60 -135 -60t-135 60q-56 61 -56 146v343h20v-343q0 -76 50 -131t121 -55t121 55t50 131v343z"/>
<glyph glyph-name="uacute" horiz-adv-x="521" unicode="ú" d="M196 655l141 108l13 -16l-141 -108zM444 564h20v-343q0 -85 -56 -146q-55 -60 -135 -60t-135 60q-56 61 -56 146v343h20v-343q0 -76 50 -131t121 -55t121 55t50 131v343z"/>
<glyph glyph-name="ucircumflex" horiz-adv-x="527" unicode="û" d="M277 748l-107 -72l-12 16l119 82l119 -82l-12 -16zM448 564h20v-343q0 -85 -56 -146q-55 -60 -135 -60t-135 60q-56 61 -56 146v343h20v-343q0 -76 50 -131t121 -55t121 55t50 131v343z"/>
<glyph glyph-name="udieresis" horiz-adv-x="521" unicode="ü" d="M363 689q-10 0 -10 10v13q0 11 10 11t10 -11v-13q0 -10 -10 -10zM183 689q-10 0 -10 10v13q0 11 10 11t10 -11v-13q0 -10 -10 -10zM444 564h20v-343q0 -85 -56 -146q-55 -60 -135 -60t-135 60q-56 61 -56 146v343h20v-343q0 -76 50 -131t121 -55t121 55t50 131v343z"/>
<glyph glyph-name="OE" horiz-adv-x="970" unicode="Œ" d="M377 34q61 0 120 34l8 5v635l-8 4q-59 34 -120 34q-118 0 -200 -105t-82 -251t82 -251t200 -105zM942 15l-437 -1v34l-22 -10q-51 -24 -106 -24q-61 0 -118 30q-54 28 -96 81q-88 112 -88 265t88 265q42 53 96 81q57 30 118 30q55 0 106 -24l22 -10v36l437 1v-20h-417 v-340l20 8q15 6 36 6h361v-20h-361q-30 0 -45 -16q-11 -12 -11 -30v-323l417 1v-20z"/>
<glyph glyph-name="oe" horiz-adv-x="940" unicode="œ" d="M582 304h-1q-16 0 -25 -10q-15 -15 -15 -39q0 -3 0.5 -5t0.5 -4v-1q13 -89 70 -149t134 -60q100 0 148 64l6 8l16 -12l-6 -8q-54 -72 -164 -72q-96 0 -162 81q-25 31 -42 71l-13 33l-14 -33q-16 -39 -45 -73q-30 -36 -74 -58q-44 -21 -91 -21t-91 21q-42 21 -73 58 q-68 81 -68 191t68 191q31 37 73 58q46 22 91 22t91 -22q44 -22 74 -58q25 -29 43 -70l15 -33l13 34q16 41 44 75q32 38 72 59q41 22 89 22q76 0 123 -38q43 -35 43 -87q0 -55 -48 -94q-52 -41 -142 -41h-1h-137h-1h-1zM746 544q-76 0 -133 -59.5t-71 -147.5l-3 -25l23 8 q10 4 24 4h136q82 0 129 37q41 33 41 78q0 43 -39 74t-107 31zM305 36q89 0 151 73.5t62 176.5q0 3 -0.5 9.5t-0.5 9.5l-298 3q193 -2 298 -3q-6 96 -67 164t-145 68q-89 0 -150.5 -74t-61.5 -177t61.5 -176.5t150.5 -73.5z"/>
<glyph glyph-name="Euro" horiz-adv-x="728" unicode="€" d="M676 176l5 8l18 -11l-6 -9q-43 -69 -104 -107q-64 -41 -137 -41q-62 0 -119 30q-54 28 -96 81q-63 79 -81 181l-2 13h-85v20h82l-1 16q-1 12 -1 36q0 4 0.5 12t0.5 12v16h-81v20h84l2 13q17 110 82 192q42 52 96 81q57 30 119 30q73 0 137 -41q61 -38 104 -107l6 -9 l-18 -10l-5 8q-40 66 -99 102.5t-125 36.5q-101 0 -178 -79.5t-98 -198.5l-3 -18h261v-20h-263l-1 -14q-1 -9 -1 -26q0 -14 2 -38l1 -14h262v-20h-259l4 -19q24 -115 99.5 -190.5t173.5 -75.5q66 0 124.5 37t99.5 103z"/>
</font>
</defs>
</svg>
