<?xml version="1.0" encoding="UTF-8" standalone="no"?>
<!DOCTYPE svg  PUBLIC '-//W3C//DTD SVG 1.1//EN'  'http://www.w3.org/Graphics/SVG/1.1/DTD/svg11.dtd'>
<svg xmlns="http://www.w3.org/2000/svg">
<defs>
<font id="Kirvy-Light" horiz-adv-x="759">
<font-face underline-position="-100" font-weight="300" descent="-200" panose-1="0 0 5 3 0 0 0 0 0 0" units-per-em="1000" unicode-range="U+0020-20AC" bbox="38 -208 1004 978" x-height="579" underline-thickness="50" font-family="Kirvy" ascent="800" cap-height="784"/>
<missing-glyph horiz-adv-x="1000"/>
<glyph glyph-name=".notdef" horiz-adv-x="1000"/>
<glyph glyph-name=".null" horiz-adv-x="0"/>
<glyph glyph-name="nonmarkingreturn" horiz-adv-x="333"/>
<glyph glyph-name="space" horiz-adv-x="280" unicode=" "/>
<glyph glyph-name="exclam" horiz-adv-x="204" unicode="!" d="M247 98q20 0 33 -13.5t13 -35.5q0 -21 -13 -35t-34 -14q-20 0 -33 14t-13 35q0 22 13.5 35.5t33.5 13.5zM221 313v471h50v-471h-50z"/>
<glyph glyph-name="quotedbl" horiz-adv-x="273" unicode='&quot;' d="M152 623v161h50v-161h-50zM70 623v161h50v-161h-50z"/>
<glyph glyph-name="numbersign" horiz-adv-x="680" unicode="#" d="M428 320l54 165h-221l-54 -165h221zM633 784l-83 -250h83v-49h-99l-55 -165h86v-49h-102l-90 -271h-52l90 271h-221l-89 -271h-52l90 271h-76v49h92l55 165h-79v49h95l83 250h51l-82 -250h220l83 250h52z"/>
<glyph glyph-name="dollar" horiz-adv-x="549" unicode="$" d="M303 85q68 6 107 45.5t39 103.5q0 60 -49 92q-29 19 -97 39v-280zM161 469q32 -20 92 -38v261q-141 -9 -141 -128q0 -62 49 -95zM479 314q20 -35 20 -80q0 -40 -14 -77q-16 -41 -42 -65q-52 -52 -140 -58v-34h-50v34q-69 3 -115 25q-40 20 -77 70l-14 20l41 29l14 -21 q23 -33 54.5 -51.5t96.5 -21.5v295q-79 22 -119 49q-34 22 -52 54q-20 35 -20 82q0 80 50 127q50 45 141 51v42h50v-43q93 -11 150 -94l14 -20l-41 -29l-14 20q-44 62 -109 73v-274q92 -27 125 -49q32 -21 51 -54z"/>
<glyph glyph-name="percent" horiz-adv-x="626" unicode="%" d="M450 48q33 0 56 25t23 60t-23 60.5t-56 25.5t-56 -25.5t-23 -60.5t23 -60t56 -25zM450 267q52 0 89.5 -39.5t37.5 -94.5t-37.5 -94t-89.5 -39t-89.5 39t-37.5 94t37.5 94.5t89.5 39.5zM177 726q-33 0 -56 -25t-23 -60t23 -60t56 -25t56 25t23 60t-23 60t-56 25zM177 508 q-52 0 -89.5 39t-37.5 94t37.5 94t89.5 39t89.5 -39t37.5 -94t-37.5 -94t-89.5 -39zM509 784h55l-453 -784h-55z"/>
<glyph glyph-name="ampersand" horiz-adv-x="663" unicode="&amp;" d="M306 734q-54 0 -75 -20.5t-26 -51.5q-2 -14 -2 -24q0 -72 51 -182q25 11 56 22q57 19 87.5 60.5t30.5 87.5q0 13 -1 19q-7 42 -39 65.5t-82 23.5zM231 389q-60 -35 -97 -82q-45 -59 -45 -117q0 -9 2 -23q9 -55 54.5 -86.5t115.5 -31.5q99 0 166 61q-63 70 -120 153 q-49 74 -76 126zM610 -28q-63 19 -149 103q-81 -75 -200 -75q-91 0 -150 45q-58 43 -69 114q-2 10 -2 31q0 78 55 148q43 54 115 96q-2 4 -19 44q-37 92 -37 160q0 11 2 31q8 54 45 84q39 30 105 30q73 0 117 -37q44 -36 53 -93q2 -18 2 -27q0 -53 -31 -103 q-41 -66 -122 -92q-22 -8 -50 -20q27 -53 73 -120q55 -83 112 -144q2 2 4 6q75 107 75 297h49q0 -102 -21 -183q-21 -83 -62 -142q-1 -1 -11 -14q77 -76 131 -92z"/>
<glyph glyph-name="quotesingle" horiz-adv-x="237" unicode="&apos;" d="M97 782h50v-23q0 -40 -13 -77t-22 -50t-14 -18l-37 33q4 4 11 14.5t16 38.5t9 59v23z"/>
<glyph glyph-name="parenleft" horiz-adv-x="353" unicode="(" d="M299 -129q-101 0 -170 141q-64 133 -64 316t64 316q68 140 170 140v-49q-34 0 -65 -28q-33 -28 -61 -85q-59 -121 -59 -294q0 -174 59 -295q28 -57 61 -85q31 -28 65 -28v-49z"/>
<glyph glyph-name="parenright" horiz-adv-x="342" unicode=")" d="M48 -129v49q35 0 66 28q31 27 60 85q59 121 59 295q0 173 -59 294q-29 58 -60 85q-31 28 -66 28v49q102 0 170 -140q64 -133 64 -316t-64 -316q-69 -141 -170 -141z"/>
<glyph glyph-name="asterisk" horiz-adv-x="505" unicode="*" d="M453 598v-48h-152l119 -157l-39 -29l-128 170l-129 -170l-38 29l118 157h-152v48h152l-118 157l38 29l129 -170l128 170l39 -29l-119 -157h152z"/>
<glyph glyph-name="plus" horiz-adv-x="599" unicode="+" d="M546 321v-50h-221v-270h-50v270h-221v50h221v270h50v-270h221z"/>
<glyph glyph-name="comma" horiz-adv-x="216" unicode="," d="M118 -147l-18 47q44 22 44 80v85h50v-85q0 -61 -37 -100q-13 -14 -39 -27z"/>
<glyph glyph-name="hyphen" horiz-adv-x="406" unicode="-" d="M66 271v50h275v-50h-275z"/>
<glyph glyph-name="period" horiz-adv-x="212" unicode="." d="M147 99q20 0 33 -13.5t13 -35.5q0 -21 -13 -35t-34 -14q-20 0 -33 14t-13 35q0 22 13.5 35.5t33.5 13.5z"/>
<glyph glyph-name="slash" horiz-adv-x="533" unicode="/" d="M153 0h-53l260 784h53z"/>
<glyph glyph-name="zero" horiz-adv-x="602" unicode="0" d="M303 734q-74 0 -119.5 -48t-59.5 -115q-14 -64 -14 -179t14 -179q14 -67 59.5 -115t119.5 -48q73 0 118 47.5t60 115.5q15 69 15 179t-15 179q-15 68 -60 115.5t-118 47.5zM303 0q-91 0 -153 62q-56 56 -74 141q-16 73 -16 189q0 118 16 189q18 85 74 141q62 62 153 62 t153 -62q56 -56 74 -141q15 -67 15 -189q0 -121 -15 -189q-18 -85 -74 -141q-62 -62 -153 -62z"/>
<glyph glyph-name="one" horiz-adv-x="344" unicode="1" d="M270 0h-50v687q-6 -7 -14 -16t-10 -11q-25 -27 -61 -54q-37 -27 -63 -27h-26v50h26q9 0 33.5 16.5t54.5 48.5q28 31 44 56q16 27 16 34h50v-784z"/>
<glyph glyph-name="two" horiz-adv-x="525" unicode="2" d="M467 0h-413v25q0 138 73 235q41 55 148 131q39 28 58.5 43.5t43.5 41t34 53t10 62.5t-21 74q-39 69 -133 69q-70 0 -124 -40q-31 -23 -39 -40l-43 25q20 31 50 53q68 52 156 52q124 0 177 -97q27 -51 27 -94v-1q0 -81 -54 -146q-33 -39 -113 -95q-38 -27 -57.5 -42 t-50 -45t-46.5 -57t-29.5 -68t-16.5 -89h363v-50z"/>
<glyph glyph-name="three" horiz-adv-x="557" unicode="3" d="M281 6q-99 0 -170 56q-10 8 -19 16.5t-15 15.5t-10.5 13t-6.5 9l-3 4l43 26q10 -20 43 -45q61 -45 138 -45q79 0 127.5 51t48.5 117q0 68 -52 111q-62 53 -196 53l1 50q108 0 165 48q47 39 47 100q0 59 -43.5 105t-114.5 46q-32 0 -61 -8.5t-47 -20t-31.5 -23.5t-19 -20 t-5.5 -9l-13 -22l-43 26l13 21q22 33 50 54q67 52 157 52q91 0 152 -63q56 -58 56 -138q0 -84 -65 -138q-23 -20 -48 -31q44 -16 78 -44q70 -59 70 -149q0 -87 -61 -150q-65 -68 -165 -68z"/>
<glyph glyph-name="four" horiz-adv-x="589" unicode="4" d="M114 337h286v365zM541 337v-50h-91v-287h-50v287h-349v50l350 447h49v-447h91z"/>
<glyph glyph-name="five" horiz-adv-x="556" unicode="5" d="M436 420q68 -71 68 -174q0 -102 -68 -173q-68 -73 -165 -73q-69 0 -127 40t-86 107l-10 23l46 19l10 -23q22 -53 67.5 -84.5t99.5 -31.5q76 0 129.5 57.5t53.5 138.5t-53.5 139t-129.5 58t-130 -59l-17 -18l-50 2l17 416h367v-50h-319l-12 -294q22 18 52 32q47 21 92 21 q97 0 165 -73z"/>
<glyph glyph-name="six" horiz-adv-x="591" unicode="6" d="M305 48q74 0 127 58t53 140t-53 139.5t-127 57.5t-126.5 -57.5t-52.5 -139.5t52.5 -140t126.5 -58zM468 420q67 -73 67 -174t-67 -174q-68 -74 -163 -74t-163 74q-36 39 -52 93t-16 163q0 15 -0.5 47.5t-0.5 48.5q0 105 14 177t59 118q61 63 169 63q55 0 105 -28 q46 -25 79 -72l14 -20l-41 -29l-14 21q-53 78 -143 78q-87 0 -133 -47q-62 -64 -62 -246q0 -7 0.5 -23t0.5 -23q12 18 21 27q67 73 163 73t163 -73z"/>
<glyph glyph-name="seven" horiz-adv-x="607" unicode="7" d="M187 0h-50q0 95 61 241q49 115 131 252q65 108 160 241h-435v50h498l-1 -48q-88 -116 -180 -269q-184 -307 -184 -467z"/>
<glyph glyph-name="eight" horiz-adv-x="568" unicode="8" d="M285 50q75 0 128.5 50.5t53.5 120.5t-53.5 120t-128.5 50t-128 -50t-53 -120q0 -71 53 -121t128 -50zM124 587q0 -61 47.5 -103.5t114.5 -42.5t114.5 42.5t47.5 103.5t-47.5 104t-114.5 43t-114.5 -43t-47.5 -104zM448 377q69 -66 69 -156q0 -91 -69 -157 q-69 -64 -163 -64t-163 64q-68 65 -68 157q0 91 68 156q27 25 58 40q-21 10 -43 31q-63 58 -63 139q0 82 63 140q62 57 149 57t149 -57q63 -58 63 -140q0 -81 -63 -139q-21 -20 -44 -31q29 -14 57 -40z"/>
<glyph glyph-name="nine" horiz-adv-x="591" unicode="9" d="M286 732q-74 0 -127 -58t-53 -140t53 -139.5t127 -57.5t126.5 57.5t52.5 139.5t-52.5 140t-126.5 58zM123 360q-67 73 -67 174q0 102 67 175t163 73t163 -73q35 -39 51.5 -93.5t16.5 -163.5q0 -15 0.5 -47.5t0.5 -48.5q0 -105 -14 -177t-59 -118q-61 -63 -169 -63 q-55 0 -105 28q-46 25 -79 72l-14 21l41 28l14 -21q53 -78 143 -78q87 0 133 47q62 64 62 246q0 7 -0.5 23t-0.5 23q-12 -18 -21 -27q-67 -73 -163 -73t-163 73z"/>
<glyph glyph-name="colon" horiz-adv-x="215" unicode=":" d="M146 393q-20 0 -33 14t-13 35q0 22 13.5 35.5t33.5 13.5t33 -13.5t13 -35.5q0 -21 -13 -35t-34 -14zM147 99q20 0 33 -13.5t13 -35.5q0 -21 -13 -35t-34 -14q-20 0 -33 14t-13 35q0 22 13.5 35.5t33.5 13.5z"/>
<glyph glyph-name="semicolon" horiz-adv-x="228" unicode=";" d="M144 -20v85h50v-85q0 -61 -37 -100q-13 -14 -39 -27l-18 47q44 22 44 80zM170 491q20 0 33 -13.5t13 -35.5q0 -21 -13 -35t-34 -14q-20 0 -33 14t-13 35q0 22 13.5 35.5t33.5 13.5z"/>
<glyph glyph-name="less" horiz-adv-x="613" unicode="&lt;" d="M536 0l-485 291v30l485 291l25 -42l-440 -264l440 -264z"/>
<glyph glyph-name="equal" horiz-adv-x="620" unicode="=" d="M66 160v50h492v-50h-492zM66 390v50h492v-50h-492z"/>
<glyph glyph-name="greater" horiz-adv-x="614" unicode="&gt;" d="M78 0l-25 42l440 264l-440 264l25 42l485 -291v-30z"/>
<glyph glyph-name="question" horiz-adv-x="513" unicode="?" d="M567 729q53 -50 53 -133q0 -95 -46 -152q-28 -33 -90 -64q-38 -20 -52 -34t-14 -44v-24h-49v24q0 27 7.5 47t24 34.5t28 21t34.5 18.5q28 14 41.5 23t32 28.5t26.5 49t8 72.5q0 139 -176 139q-87 0 -141 -79l-14 -21l-40 28l14 20q33 48 80.5 74.5t100.5 26.5 q114 0 172 -55zM400 96q20 0 32 -13.5t12 -34.5t-12 -34.5t-33 -13.5q-20 0 -32.5 13.5t-12.5 34.5t13 34.5t33 13.5z"/>
<glyph glyph-name="at" horiz-adv-x="973" unicode="@" d="M476 68q81 0 139 68t58 164t-58 163.5t-139 67.5t-138.5 -67.5t-57.5 -163.5t57.5 -164t138.5 -68zM886 493q33 -92 33 -192q0 -88 -40 -178q-25 -55 -55 -85q-39 -39 -89 -39q-46 0 -73 31q-19 24 -21 60q-32 -32 -67 -49q-48 -23 -98 -23q-49 0 -97 23q-42 20 -78 61 q-71 82 -71 198q0 115 71 197q36 41 78 61q48 23 97 23q50 0 98 -23q42 -20 78 -61q31 -35 50 -83l33 163l49 -10l-92 -453q-1 -4 -1 -16q0 -24 10 -37q11 -12 34 -12q29 0 54 25t44 69q36 81 36 158q0 184 -111.5 314.5t-269.5 130.5t-269.5 -130.5t-111.5 -314.5 t111.5 -314.5t269.5 -130.5q70 0 133 27q39 16 74 44l20 15l30 -40l-20 -15q-38 -30 -84 -50q-72 -31 -153 -31q-88 0 -169 39q-77 38 -137 107q-59 68 -92 157q-33 92 -33 192q0 101 33 192q33 89 92 157q60 69 137 107q81 39 169 39t169 -39q77 -38 137 -107 q61 -71 92 -157z"/>
<glyph glyph-name="A" horiz-adv-x="683" unicode="A" d="M341 701l-130 -371q22 8 49 8h148q44 0 55 11zM96 0h-52l273 784h47l273 -784h-52l-105 302q-26 -13 -72 -13h-148q-56 0 -78 -43z"/>
<glyph glyph-name="B" horiz-adv-x="678" unicode="B" d="M398 50q70 0 119.5 49.5t49.5 119.5t-49.5 119.5t-119.5 49.5l-233 1q-24 0 -41 7v-346h228h46zM398 734h-274v-266q0 -11 8 -19q10 -10 33 -10h233q61 0 104 43t43 104t-43 104.5t-104 43.5zM553 374q64 -64 64 -155t-64 -155t-155 -64h-324v784h324q82 0 139.5 -58 t57.5 -140q0 -54 -27 -99.5t-72 -71.5q31 -15 57 -41z"/>
<glyph glyph-name="C" horiz-adv-x="698" unicode="C" d="M379 0q-65 0 -126 32q-58 31 -102 85q-91 114 -91 275t91 275q44 54 102 85q61 32 126 32q76 0 145 -43q66 -43 109 -112l13 -22l-43 -26l-13 21q-38 62 -93.5 97t-117.5 35q-111 0 -190 -100.5t-79 -241.5t79 -241.5t190 -100.5q62 0 117.5 35t93.5 97l13 21l43 -26 l-13 -22q-43 -69 -109 -112q-69 -43 -145 -43z"/>
<glyph glyph-name="D" horiz-adv-x="683" unicode="D" d="M124 51l181 -1q108 0 185 99q80 102 80 245q0 141 -77.5 240.5t-187.5 99.5h-181v-683zM305 0h-1l-230 1v783h231q65 0 124 -32q58 -30 101 -84q90 -113 90 -274q0 -79 -24 -151q-24 -71 -66 -125q-45 -57 -100 -86q-61 -32 -125 -32z"/>
<glyph glyph-name="E" horiz-adv-x="606" unicode="E" d="M541 0h-467v784h467v-50h-417v-303q17 7 41 7h376v-50h-376q-24 0 -33 -10q-8 -8 -8 -21v-307h417v-50z"/>
<glyph glyph-name="F" horiz-adv-x="616" unicode="F" d="M158 438h331v-50h-324q-22 0 -33 -11q-8 -8 -8 -22v-355h-50v784h492v-50h-442v-303q14 5 34 7z"/>
<glyph glyph-name="G" horiz-adv-x="751" unicode="G" d="M378 0q-65 0 -126 32q-56 30 -101 85q-91 114 -91 275t91 275q45 55 101 85q61 32 126 32q81 0 151 -47q67 -44 110 -121l-44 -25q-38 67 -95.5 105t-121.5 38q-111 0 -189.5 -100.5t-78.5 -241.5t78.5 -241.5t189.5 -100.5q90 0 170.5 92t89.5 221h-202q-40 0 -65 -23 q-5 -4 -8.5 -9.5t-4.5 -8.5l-2 -3l-47 17q13 26 27 40q37 35 93 37h235q11 0 18 -7t7 -18q0 -77 -27 -149t-69 -122q-46 -56 -102 -86.5t-113 -30.5z"/>
<glyph glyph-name="H" horiz-adv-x="658" unicode="H" d="M582 0h-50v409q-32 -20 -74 -21h-255q-40 0 -65 -23q-10 -10 -14 -18v-347h-50v784h50v-367q34 21 79 21h250q41 0 66 23q8 8 13 18v305h50v-784z"/>
<glyph glyph-name="I" horiz-adv-x="200" unicode="I" d="M74 0v784h50v-784h-50z"/>
<glyph glyph-name="J" horiz-adv-x="433" unicode="J" d="M48 0v50q110 0 188.5 100t78.5 241v393h50v-393q0 -162 -91 -275q-43 -54 -101 -84q-61 -32 -125 -32z"/>
<glyph glyph-name="K" horiz-adv-x="639" unicode="K" d="M175 388l421 -388h-74l-379 350q-15 15 -19 22v-372h-50v784h50v-340q9 15 22 25l337 315h73l-378 -353q-15 -13 -15 -22t12 -21z"/>
<glyph glyph-name="L" horiz-adv-x="620" unicode="L" d="M124 50h442v-50h-492v784h50v-734z"/>
<glyph glyph-name="M" horiz-adv-x="772" unicode="M" d="M644 784h52v-784h-50v643l-235 -643h-53l-234 643v-643h-50v784h51l260 -711z"/>
<glyph glyph-name="N" horiz-adv-x="652" unicode="N" d="M526 784h50v-784h-78l-374 686v-686h-50v784h53l399 -732v732z"/>
<glyph glyph-name="O" d="M378 734q-111 0 -189.5 -100.5t-78.5 -241.5t78.5 -241.5t189.5 -100.5t189.5 100.5t78.5 241.5t-78.5 241.5t-189.5 100.5zM378 0q-65 0 -126 32q-56 30 -101 85q-91 114 -91 275t91 275q45 55 101 85q61 32 126 32t126 -32q55 -29 100 -85q92 -115 92 -275t-92 -275 q-45 -56 -100 -85q-61 -32 -126 -32z" unicode="O"/>
<glyph glyph-name="P" horiz-adv-x="647" unicode="P" d="M397 438q61 0 104 43t43 104t-43 105t-104 44h-273v-303q19 7 37 7h236zM398 784q81 0 138.5 -58.5t57.5 -140.5t-57.5 -139.5t-139.5 -57.5h-232q-25 0 -34 -11q-7 -7 -7 -19v-358h-50v784h324z"/>
<glyph glyph-name="Q" d="M378 50q111 0 189.5 100.5t78.5 241.5t-78.5 241.5t-189.5 100.5t-189.5 -100.5t-78.5 -241.5t78.5 -241.5t189.5 -100.5zM575 85q26 -40 65 -40l3 -50h-3q-22 0 -45 9q-34 14 -58 48q-11 -8 -33 -20q-61 -32 -126 -32t-126 32q-56 30 -101 85q-91 114 -91 275t91 275 q45 55 101 85q61 32 126 32t126 -32q55 -29 100 -85q92 -115 92 -275t-92 -275q-9 -12 -29 -32z" unicode="Q"/>
<glyph glyph-name="R" horiz-adv-x="661" unicode="R" d="M124 431q19 7 37 7h236q61 0 104 43t43 104t-43 105t-104 44h-273v-303zM613 0h-55l-153 346q-10 18 -24 28.5t-20 12t-9 1.5h-187q-25 0 -34 -11q-7 -7 -7 -19v-358h-50v784h323q82 0 139.5 -58.5t57.5 -140.5q0 -71 -45.5 -125.5t-114.5 -67.5q14 -18 18 -27z"/>
<glyph glyph-name="S" horiz-adv-x="662" unicode="S" d="M328 0q-108 0 -173 28q-54 24 -95 76l-15 19l40 30l15 -20q32 -41 79.5 -62.5t148.5 -21.5q103 0 162.5 46t59.5 125q0 29 -10.5 51t-27 37t-48 28.5t-61 22t-77.5 20.5q-126 31 -176 60q-43 26 -64 58q-25 38 -25 91q0 88 63 140q70 56 204 56q63 0 119 -27.5t96 -77.5 l15 -19l-39 -30l-16 20q-68 85 -175 85q-118 0 -171 -44q-46 -37 -46 -103q0 -29 11 -51.5t27.5 -38t48.5 -29t61.5 -22.5t78.5 -21q123 -30 174 -59q42 -24 64 -58q24 -37 24 -89q0 -49 -17 -86q-17 -39 -53 -70q-73 -64 -202 -64z"/>
<glyph glyph-name="T" horiz-adv-x="676" unicode="T" d="M627 784v-50h-272v-734h-50v734h-257v50h579z"/>
<glyph glyph-name="U" horiz-adv-x="636" unicode="U" d="M317 1q-103 0 -175 72t-72 175v536h50v-536q0 -82 57.5 -139.5t139.5 -57.5t139.5 57.5t57.5 139.5v536h50v-536q0 -103 -72 -175t-175 -72z"/>
<glyph glyph-name="V" horiz-adv-x="689" unicode="V" d="M318 0l-274 784h53l247 -708l247 708h53l-273 -784h-53z"/>
<glyph glyph-name="W" horiz-adv-x="1049" unicode="W" d="M953 784h51l-274 -784h-45l-161 591l-161 -591h-45l-274 784h50l244 -696l169 623h34l169 -623z"/>
<glyph glyph-name="X" horiz-adv-x="737" unicode="X" d="M689 784l-291 -392l291 -392h-60l-261 352l-261 -352h-60l291 392l-291 392h60l261 -352l261 352h60z"/>
<glyph glyph-name="Y" horiz-adv-x="742" unicode="Y" d="M698 784l-287 -387q-16 -38 -16 -87v-310h-49v310q0 51 -15 87l-287 387h61l266 -358l266 358h61z"/>
<glyph glyph-name="Z" horiz-adv-x="719" unicode="Z" d="M670 743l-549 -693h529v-50h-601v41l549 693h-529v50h601v-41z"/>
<glyph glyph-name="bracketleft" horiz-adv-x="242" unicode="[" d="M196 -138h-121v922h121v-50h-71v-822h71v-50z"/>
<glyph glyph-name="backslash" horiz-adv-x="404" unicode="\" d="M306 0l-260 784h53l260 -784h-53z"/>
<glyph glyph-name="bracketright" horiz-adv-x="244" unicode="]" d="M48 -138v50h71v822h-71v50h121v-922h-121z"/>
<glyph glyph-name="asciicircum" horiz-adv-x="480" unicode="^" d="M85 609l-29 41l192 134l176 -135l-30 -39l-147 112z"/>
<glyph glyph-name="underscore" horiz-adv-x="612" unicode="_" d="M60 0v50h492v-50h-492z"/>
<glyph glyph-name="grave" horiz-adv-x="216" unicode="`" d="M100 614v23q0 31 -9 59t-16 38.5t-11 14.5l37 33q5 -5 14 -18t22 -50t13 -77v-23h-50z"/>
<glyph glyph-name="a" horiz-adv-x="534" unicode="a" d="M379 289h-120q-67 0 -113 -37q-44 -35 -44 -83q0 -47 44 -82q46 -37 113 -37t113 37q43 34 43 82v126q-16 -6 -32 -6h-4zM259 0q-84 0 -144 48q-63 50 -63 121q0 72 63 122q60 48 144 48h121q16 -1 25 8q10 10 10 30v33q0 49 -43 84t-105 35q-83 0 -126 -58l-15 -20 l-41 30l15 20q59 78 167 78q82 0 139 -48q59 -50 59 -121v-241q0 -71 -62 -121q-60 -48 -144 -48z"/>
<glyph glyph-name="b" horiz-adv-x="553" unicode="b" d="M124 50h82q97 0 165.5 68.5t68.5 165.5t-68.5 166t-165.5 69h-40q-25 0 -42 7v-476zM206 0h-132v784h50v-182q-1 -14 8 -23q10 -10 33 -10h41q118 0 201 -83t83 -202q0 -118 -83 -201t-201 -83z"/>
<glyph glyph-name="c" horiz-adv-x="534" unicode="c" d="M300 0q-53 0 -96 23q-44 23 -77 63q-69 83 -69 203t69 203q33 40 77 63q45 24 96 24q109 0 166 -78l15 -20l-40 -30l-15 20q-44 58 -126 58q-80 0 -136 -69.5t-56 -170.5t56 -170t136 -69q82 0 126 58l15 20l40 -30l-15 -20q-57 -78 -166 -78z"/>
<glyph glyph-name="d" horiz-adv-x="548" unicode="d" d="M422 526q-17 -7 -41 -7h-41q-97 0 -165.5 -69t-68.5 -166t68.5 -165.5t165.5 -68.5h82v476zM139 83q-83 83 -83 201q0 119 83 202t201 83h41q24 0 34 10q4 4 5.5 9.5t1.5 9.5v4v182h50v-784h-132q-118 0 -201 83z"/>
<glyph glyph-name="e" horiz-adv-x="544" unicode="e" d="M300 529q-70 0 -123 -55.5t-66 -139.5l29 5h136q77 0 120 34q36 28 36 66q0 36 -34.5 63t-97.5 27zM300 0q-102 0 -173 87q-48 59 -63 135q-6 25 -6 67q0 120 69 203q33 40 77 63q48 24 96 24q82 0 133 -42q49 -41 49 -98q0 -62 -55 -106q-56 -44 -151 -44h-136 q-13 0 -19 -6q-11 -11 -11 -28l1 -8q12 -85 65.5 -141t123.5 -56q93 0 136 58l15 20l40 -30l-15 -20q-58 -78 -176 -78z"/>
<glyph glyph-name="f" horiz-adv-x="351" unicode="f" d="M277 784h25v-50h-25q-63 0 -108 -47t-48 -115q17 7 41 7h115v-50h-115q-24 0 -33 -11q-8 -8 -8 -21v-497h-50v564q0 89 60 155q60 65 146 65z"/>
<glyph glyph-name="g" horiz-adv-x="548" unicode="g" d="M383 63q24 0 41 -7v476h-82q-97 0 -165.5 -69t-68.5 -166t68.5 -165.5t165.5 -68.5h41zM342 582h132v-613q0 -71 -59 -121q-57 -48 -138 -48q-51 0 -95.5 20.5t-71.5 57.5l-15 20l40 30l15 -20q44 -58 127 -58q61 0 104 35t43 84v14q0 12 -8 20q-10 10 -33 10h-41 q-118 0 -201 83t-83 201t83 201q84 84 201 84z"/>
<glyph glyph-name="h" horiz-adv-x="559" unicode="h" d="M426 506q60 -66 60 -156v-350h-50v350q0 71 -46 121t-110 50h-120h-3q-19 0 -33 6v-527h-50v784h50v-171q0 -23 11 -34q4 -4 9.5 -6t9.5 -2h3h123q86 0 146 -65z"/>
<glyph glyph-name="i" horiz-adv-x="197" unicode="i" d="M97 758q11 0 18 -7t7 -18v-14q0 -11 -7 -18t-18 -7t-18 7t-7 18v14q0 11 7 18t18 7zM72 0v579h50v-579h-50z"/>
<glyph glyph-name="j" horiz-adv-x="344" unicode="j" d="M219 20v584h50v-584q0 -89 -60 -155q-60 -65 -146 -65h-25v50h25q65 0 110.5 50t45.5 120zM244 758q10 0 17.5 -7t7.5 -18v-14q0 -11 -7.5 -18t-17.5 -7t-17.5 7t-7.5 18v14q0 11 7.5 18t17.5 7z"/>
<glyph glyph-name="k" horiz-adv-x="577" unicode="k" d="M251 324l279 -324h-67l-250 291l-1 1q-11 11 -21 12q-7 0 -13 -3l-54 -43v-258h-50v784h50v-462l324 257h81l-299 -237q15 -9 21 -18z"/>
<glyph glyph-name="l" horiz-adv-x="200" unicode="l" d="M74 0v784h50v-784h-50z"/>
<glyph glyph-name="m" horiz-adv-x="915" unicode="m" d="M782 514q60 -66 60 -156v-358h-50v358q0 71 -46 121t-110 50t-110 -50t-46 -121v-358h-50v358q0 71 -46 121t-110 50t-110 -50t-46 -121v-358h-50v358q0 90 60 156q60 65 146 65t146 -65q22 -23 35 -50q13 27 35 50q60 65 146 65t146 -65z"/>
<glyph glyph-name="n" horiz-adv-x="553" unicode="n" d="M480 0h-50v358q0 71 -46 121t-110 50t-110 -50t-46 -121v-358h-50v358q0 90 60 156q60 65 146 65t146 -65q60 -66 60 -156v-358z"/>
<glyph glyph-name="o" horiz-adv-x="624" unicode="o" d="M308 529q-83 0 -141.5 -70t-58.5 -169t58.5 -169t141.5 -70t142 70t59 169t-59 169t-142 70zM308 1q-50 0 -98 23q-46 23 -80 63q-72 85 -72 203t72 203q33 38 80 62q50 24 98 24q49 0 99 -24q47 -24 80 -62q72 -85 72 -203t-72 -203q-34 -40 -80 -63q-48 -23 -99 -23z "/>
<glyph glyph-name="p" horiz-adv-x="552" unicode="p" d="M122 58q17 7 42 7h40q97 0 165.5 69t68.5 166t-68.5 165.5t-165.5 68.5h-82v-476zM405 501q83 -83 83 -201q0 -119 -83 -202t-201 -83h-41q-23 0 -33 -10q-4 -4 -6 -9.5t-2 -9.5v-4v-182h-50v784h132q118 0 201 -83z"/>
<glyph glyph-name="q" horiz-adv-x="549" unicode="q" d="M424 534h-82q-97 0 -165.5 -68.5t-68.5 -165.5t68.5 -166t165.5 -69h41q24 0 41 -7v476zM342 584h132v-784h-50v182q2 14 -7 23q-10 10 -34 10h-41q-118 0 -201 83t-83 202q0 118 83 201t201 83z"/>
<glyph glyph-name="r" horiz-adv-x="325" unicode="r" d="M118 0h-50v358q0 91 60 156t146 65v-50q-64 0 -110 -50t-46 -121v-358z"/>
<glyph glyph-name="s" horiz-adv-x="512" unicode="s" d="M258 0q-75 0 -123 21q-39 18 -69 57l-15 20l40 30l15 -20q21 -28 52.5 -43t99.5 -15t107.5 31.5t39.5 84.5q0 45 -40 69q-31 18 -110 38q-90 22 -124 43q-66 40 -66 114q0 66 47 107q50 42 146 42q97 0 156 -78l15 -20l-39 -31l-16 20q-46 59 -116 59q-143 0 -143 -99 q0 -46 42 -71q31 -18 110 -38q89 -23 123 -43q65 -39 65 -112t-51 -118q-54 -48 -146 -48z"/>
<glyph glyph-name="t" horiz-adv-x="333" unicode="t" d="M120 221q0 -70 46 -120.5t111 -50.5v-50q-87 0 -147 65t-60 156v563h50v-223q17 7 42 7h115v-50h-115q-23 0 -34 -11q-8 -8 -8 -20v-266z"/>
<glyph glyph-name="u" horiz-adv-x="549" unicode="u" d="M273 0q-86 0 -146 65q-60 66 -60 156v358h50v-358q0 -71 46 -121t110 -50t110 50t46 121v358h50v-358q0 -90 -60 -156q-60 -65 -146 -65z"/>
<glyph glyph-name="v" horiz-adv-x="570" unicode="v" d="M307 0h-47l-216 579h53l186 -499l186 499h53z"/>
<glyph glyph-name="w" horiz-adv-x="877" unicode="w" d="M613 0h-47l-130 418l-129 -418h-47l-216 579h53l184 -493l131 424h48l132 -424l183 493h54z"/>
<glyph glyph-name="x" horiz-adv-x="576" unicode="x" d="M526 579l-209 -289l210 -290h-60l-180 248l-179 -248h-60l209 290l-209 289h60l179 -248l180 248h59z"/>
<glyph glyph-name="y" horiz-adv-x="574" unicode="y" d="M475 579h51l-239 -641q-21 -60 -71 -99q-51 -39 -115 -39h-24v48h24q46 0 84.5 29.5t55.5 76.5h1l2 9q4 12 4 24q0 25 -7 54l-15 51l-182 487h52l175 -470l2 -5q2 -6 5 -16t6 -21z"/>
<glyph glyph-name="z" horiz-adv-x="561" unicode="z" d="M489 0h-439v41l387 488h-368v50h440v-41l-388 -488h368v-50z"/>
<glyph glyph-name="braceleft" horiz-adv-x="409" unicode="{" d="M328 -124q-87 0 -117 72q-17 43 -19 150q-2 119 -23.5 159.5t-77.5 43.5h-43v57l43 1q56 3 77.5 43.5t23.5 159.5q2 107 19 150q30 72 117 72h4h29v-58h-30h-1l-2 1q-48 0 -64 -37q-12 -30 -14 -129q-3 -137 -34 -192q-13 -23 -34 -39q21 -16 34 -39q31 -55 34 -192 q2 -99 14 -129q16 -37 64 -37l1 1h2h30v-58h-29h-4z"/>
<glyph glyph-name="bar" horiz-adv-x="200" unicode="|" d="M75 -136v920h50v-920h-50z"/>
<glyph glyph-name="braceright" horiz-adv-x="410" unicode="}" d="M82 -124h-4h-29v58h30h1l2 -1q48 0 64 37q12 30 14 129q3 137 34 192q13 23 34 39q-21 16 -34 39q-31 55 -34 192q-2 99 -14 129q-16 37 -64 37l-1 -1h-2h-30v58h29h4q87 0 117 -72q17 -43 19 -150q2 -119 23.5 -159.5t77.5 -43.5h43v-58h-43q-56 -3 -77.5 -43.5 t-23.5 -159.5q-2 -107 -19 -150q-30 -72 -117 -72z"/>
<glyph glyph-name="asciitilde" horiz-adv-x="561" unicode="~" d="M372 266q-43 0 -116 58q-57 45 -79 45q-5 0 -7 -1q-27 -6 -56 -67l-11 -23l-45 22l11 22q40 84 89 95q12 2 19 2q23 0 52 -15q20 -11 58 -41q59 -47 85 -47q6 0 9 1q33 7 70 85l11 22l45 -21l-10 -22q-25 -52 -49 -77q-24 -27 -56 -35q-11 -3 -20 -3z"/>
<glyph glyph-name="exclamdown" horiz-adv-x="205" unicode="¡" d="M104 686q-20 0 -33.5 13.5t-13.5 35.5q0 21 13 35t33 14q21 0 34 -14t13 -35q0 -22 -13 -35.5t-33 -13.5zM78 0v471h50v-471h-50z"/>
<glyph glyph-name="cent" horiz-adv-x="509" unicode="¢" d="M411 108l15 20l40 -30l-15 -20q-48 -65 -138 -76v-54h-50v53q-39 5 -74 22q-44 23 -77 63q-69 83 -69 203v1q0 119 69 202q33 40 77 63q37 19 74 23v53h50v-54q90 -11 138 -76l15 -20l-40 -30l-15 20q-43 58 -126 58q-80 0 -136 -70t-56 -169v-1q0 -99 56 -169t136 -70 q83 0 126 58z"/>
<glyph glyph-name="sterling" horiz-adv-x="605" unicode="£" d="M555 0h-506v49q42 0 63 49q30 71 33 244h-79v50h79q0 117 16 193q15 76 46 120q28 41 73 59q34 14 85 14q57 0 105 -45q43 -40 73 -112l-46 -19q-25 59 -60 92.5t-72 33.5q-82 0 -117 -52q-53 -77 -53 -284h222v-50h-222q-3 -184 -37 -264q-3 -8 -15 -27h412v-51z"/>
<glyph glyph-name="currency" horiz-adv-x="590" unicode="¤" d="M296 193q63 0 108 50.5t45 120.5t-45 120.5t-108 50.5t-108 -50.5t-45 -120.5t45 -120.5t108 -50.5zM499 364q0 -67 -36 -125l73 -72l-36 -36l-68 69q-57 -57 -136 -57t-136 57l-68 -69l-35 36l72 72q-36 58 -36 125q0 70 36 126l-73 74l35 35l70 -70q58 56 135 56 q78 0 135 -55l69 69l36 -35l-74 -73q37 -57 37 -127z"/>
<glyph glyph-name="yen" horiz-adv-x="699" unicode="¥" d="M389 398q-7 -19 -9 -32h161v-49h-167v-61h167v-49h-167v-207h-49v207h-169v49h169v61h-169v49h163q-3 12 -9 32l-266 357l39 29l266 -358l267 358l39 -29z"/>
<glyph glyph-name="section" horiz-adv-x="501" unicode="§" d="M301 285q47 5 73.5 32.5t26.5 72.5q0 41 -29 60.5t-97 38.5q-4 1 -11.5 3.5t-11.5 3.5h-22q-63 0 -94 -28q-24 -22 -24 -63q0 -43 29 -62.5t98 -38.5q42 -12 62 -19zM451 390q0 -68 -44 -110q-22 -21 -45 -30q40 -37 40 -93q0 -69 -44 -111q-48 -46 -128 -46 q-67 0 -104.5 19t-63.5 56l-14 20l41 29l14 -21q18 -26 44.5 -39.5t82.5 -13.5q57 0 89.5 28.5t32.5 78.5q0 52 -59 77q-3 0 -39.5 11.5t-79 27.5t-56.5 25q-56 37 -56 107q0 63 40 100q23 22 57 32q-49 38 -49 101t40 100q44 41 129 41q83 0 136 -75l15 -20l-41 -29l-15 21 q-37 53 -95 53q-65 0 -95 -27q-24 -22 -24 -64q0 -43 29.5 -62.5t98.5 -38.5q77 -21 107 -41q56 -38 56 -106z"/>
<glyph glyph-name="guillemotleft" horiz-adv-x="441" unicode="«" d="M381 116l-176 173l176 175v-71l-105 -103l105 -104v-70zM225 116l-176 174l176 174v-71l-105 -103l104 -103z"/>
<glyph glyph-name="uni00B5" horiz-adv-x="550" unicode="µ" d="M437 784h50v-350q0 -90 -60 -156q-60 -65 -146 -65h-123q-13 0 -22 -8q-11 -11 -11 -34v-171h-50v784h50v-527q14 6 33 6h3h120q64 0 110 50t46 121v350z"/>
<glyph glyph-name="paragraph" horiz-adv-x="644" unicode="¶" d="M483 438q18 0 37 -7v303h-37v-296zM247 438h186v296l-186 -1q-61 0 -104 -43.5t-43 -104.5t43 -104t104 -43zM570 784v-784h-50v358q0 12 -7 19q-10 10 -30 11v-388h-50v388h-186q-82 0 -139.5 57.5t-57.5 139.5t57.5 140t139.5 58z"/>
<glyph glyph-name="guillemotright" horiz-adv-x="445" unicode="»" d="M65 116l-1 70l105 104l-105 103l1 71l176 -175zM221 116v71l104 103l-104 103v71l176 -174z"/>
<glyph glyph-name="questiondown" horiz-adv-x="515" unicode="¿" d="M106 55q-52 49 -52 133q0 96 45 152q28 33 90 64q39 20 53 34t14 44v24h49v-24q0 -27 -7.5 -47t-24.5 -34.5t-28.5 -21t-34.5 -18.5q-28 -14 -41.5 -23t-31.5 -28.5t-26 -49t-8 -72.5q0 -139 175 -139q86 0 141 80l14 20l40 -28l-14 -20q-33 -48 -80.5 -74.5 t-100.5 -26.5q-114 0 -172 55zM273 688q-20 0 -32 13.5t-12 34.5t12 34.5t33 13.5q20 0 32.5 -13.5t12.5 -34.5t-13 -34.5t-33 -13.5z"/>
<glyph glyph-name="Agrave" horiz-adv-x="684" unicode="À" d="M240 910l30 40l165 -126l-30 -40zM409 339q41 0 54 11l-122 351l-129 -370q28 8 49 8h148zM364 784l274 -784h-53l-105 302q-26 -13 -71 -13h-148q-39 0 -64 -23q-15 -15 -15 -20l-86 -246h-52l274 784h46z"/>
<glyph glyph-name="Aacute" horiz-adv-x="684" unicode="Á" d="M216 824l164 126l31 -40l-165 -126zM409 339q41 0 54 11l-122 351l-129 -370q28 8 49 8h148zM364 784l274 -784h-53l-105 302q-26 -13 -71 -13h-148q-39 0 -64 -23q-15 -15 -15 -20l-86 -246h-52l274 784h46z"/>
<glyph glyph-name="Acircumflex" horiz-adv-x="684" unicode="Â" d="M347 899l-166 -116l-29 42l197 136l179 -137l-31 -40zM409 339q41 0 54 11l-122 351l-129 -370q28 8 49 8h148zM364 784l274 -784h-53l-105 302q-26 -13 -71 -13h-148q-39 0 -64 -23q-15 -15 -15 -20l-86 -246h-52l274 784h46z"/>
<glyph glyph-name="Atilde" horiz-adv-x="684" unicode="Ã" d="M264 840l-10 -23l-45 22l10 22q22 49 55 56q8 2 13 2q24 0 65 -32q26 -22 37 -22h2q13 4 29 38l10 23l46 -21l-11 -23q-26 -56 -63 -65q-10 -2 -13 -2q-26 0 -68 33q-29 21 -34 21h-1q-9 0 -22 -29zM409 339q41 0 54 11l-122 351l-129 -370q28 8 49 8h148zM364 784 l274 -784h-53l-105 302q-26 -13 -71 -13h-148q-39 0 -64 -23q-15 -15 -15 -20l-86 -246h-52l274 784h46z"/>
<glyph glyph-name="Adieresis" horiz-adv-x="685" unicode="Ä" d="M431 810q-11 0 -18 7t-7 18v14q0 11 7 18t18 7t18 -7t7 -18v-14q0 -11 -7 -18t-18 -7zM251 810q-11 0 -18 7t-7 18v14q0 11 7 18t18 7t18 -7t7 -18v-14q0 -11 -7 -18t-18 -7zM409 339q41 0 54 11l-122 351l-129 -370q28 8 49 8h148zM364 784l274 -784h-53l-105 302 q-26 -13 -71 -13h-148q-39 0 -64 -23q-15 -15 -15 -20l-86 -246h-52l274 784h46z"/>
<glyph glyph-name="Aring" horiz-adv-x="684" unicode="Å" d="M409 339q41 0 54 11l-122 351l-129 -370q28 8 49 8h148zM306 865q0 -14 10 -24t24 -10t24 10t10 24t-10 24t-24 10t-24 -10t-10 -24zM364 784l274 -784h-53l-105 302q-26 -13 -71 -13h-148q-39 0 -64 -23q-15 -15 -15 -20l-86 -246h-52l274 784q-27 8 -44.5 30t-17.5 51 q0 35 25 59.5t59 24.5t59 -24.5t25 -59.5q0 -29 -17.5 -51t-44.5 -30h2z"/>
<glyph glyph-name="AE" horiz-adv-x="861" unicode="Æ" d="M272 333q19 0 33.5 3.5t18.5 7.5l5 3v319l-118 -340q20 7 49 7h12zM796 1l-467 -1v291q-26 -8 -57 -8h-12q-58 0 -79 -43l-84 -239h-53l274 783h478v-50h-417v-303q17 7 42 7h375v-50h-375q-25 0 -34 -10q-8 -8 -8 -21v-307l417 1v-50z"/>
<glyph glyph-name="Ccedilla" horiz-adv-x="698" unicode="Ç" d="M590 182l14 21l43 -26l-14 -22q-43 -69 -109 -112q-57 -36 -123 -42v-23q21 -8 34 -25q22 -28 22 -66q0 -37 -22 -65q-24 -30 -59 -30q-43 0 -66 39l-14 22l43 26l14 -21q10 -16 23 -16t22 13t9 32t-9 32t-22 13h-26l1 51v18q-52 6 -98 30q-55 29 -101 86 q-92 115 -92 275t92 275q46 57 101 86q59 31 126 31q76 0 145 -43q66 -43 109 -112l14 -22l-43 -26l-14 21q-38 63 -93.5 97.5t-117.5 34.5q-111 0 -190 -100.5t-79 -241.5t79 -241.5t190 -100.5q62 0 117.5 34.5t93.5 97.5z"/>
<glyph glyph-name="Egrave" horiz-adv-x="605" unicode="È" d="M540 50v-50l-467 -1v785h467v-50h-417v-303q17 7 41 7h376v-50h-376q-24 0 -33 -11q-8 -8 -8 -21v-307zM209 926l30 40l165 -126l-30 -40z"/>
<glyph glyph-name="Eacute" horiz-adv-x="605" unicode="É" d="M540 50v-50l-467 -1v785h467v-50h-417v-303q17 7 41 7h376v-50h-376q-24 0 -33 -11q-8 -8 -8 -21v-307zM209 840l165 126l30 -40l-165 -126z"/>
<glyph glyph-name="Ecircumflex" horiz-adv-x="605" unicode="Ê" d="M540 50v-50l-467 -1v785h467v-50h-417v-303q17 7 41 7h376v-50h-376q-24 0 -33 -11q-8 -8 -8 -21v-307zM314 916l-167 -116l-28 41l196 137l179 -138l-30 -39z"/>
<glyph glyph-name="Edieresis" horiz-adv-x="605" unicode="Ë" d="M540 50v-50l-467 -1v785h467v-50h-417v-303q17 7 41 7h376v-50h-376q-24 0 -33 -11q-8 -8 -8 -21v-307zM399 810q-11 0 -18 7t-7 18v14q0 11 7 18t18 7t18 -7t7 -18v-14q0 -11 -7 -18t-18 -7zM219 810q-11 0 -18 7t-7 18v14q0 11 7 18t18 7t18 -7t7 -18v-14q0 -11 -7 -18 t-18 -7z"/>
<glyph glyph-name="Igrave" horiz-adv-x="274" unicode="Ì" d="M88 0v784h50v-784h-50zM205 800l-165 126l30 40l165 -126z"/>
<glyph glyph-name="Iacute" horiz-adv-x="271" unicode="Í" d="M111 0v784h50v-784h-50zM68 800l-30 40l165 126l30 -40z"/>
<glyph glyph-name="Icircumflex" horiz-adv-x="452" unicode="Î" d="M201 0v784h50v-784h-50zM234 978l179 -138l-30 -39l-150 115l-166 -116l-29 41z"/>
<glyph glyph-name="Idieresis" horiz-adv-x="307" unicode="Ï" d="M128 0v784h50v-784h-50zM243 874q11 0 18 -7t7 -18v-14q0 -11 -7 -18t-18 -7t-18 7t-7 18v14q0 11 7 18t18 7zM63 874q11 0 18 -7t7 -18v-14q0 -11 -7 -18t-18 -7t-18 7t-7 18v14q0 11 7 18t18 7z"/>
<glyph glyph-name="Ntilde" horiz-adv-x="635" unicode="Ñ" d="M511 784h48v-784h-44l-394 682v-682h-48v784h45l393 -681v681zM239 825l-11 -22l-45 21l10 22q22 49 55 56q8 2 13 2q24 0 65 -32q26 -22 37 -22h2q13 4 29 38l11 23l45 -21l-11 -23q-26 -56 -63 -65q-10 -2 -13 -2q-26 0 -68 33q-29 21 -34 21h-1q-8 0 -21 -29z"/>
<glyph glyph-name="Ograve" d="M378 50q111 0 189.5 100t78.5 242q0 141 -78.5 241.5t-189.5 100.5t-189.5 -100t-78.5 -242t78.5 -242t189.5 -100zM605 667q91 -114 91 -275t-91 -275q-45 -55 -101 -85q-61 -32 -126 -32t-126 32q-56 30 -101 85q-91 114 -91 275t91 275q45 55 101 85q61 32 126 32 t126 -32q56 -30 101 -85zM280 926l31 40l164 -126l-30 -40z" unicode="Ò"/>
<glyph glyph-name="Oacute" d="M378 50q111 0 189.5 100t78.5 242q0 141 -78.5 241.5t-189.5 100.5t-189.5 -100t-78.5 -242t78.5 -242t189.5 -100zM605 667q91 -114 91 -275t-91 -275q-45 -55 -101 -85q-61 -32 -126 -32t-126 32q-56 30 -101 85q-91 114 -91 275t91 275q45 55 101 85q61 32 126 32 t126 -32q56 -30 101 -85zM280 840l165 126l30 -40l-164 -126z" unicode="Ó"/>
<glyph glyph-name="Ocircumflex" d="M378 50q111 0 189.5 100t78.5 242q0 141 -78.5 241.5t-189.5 100.5t-189.5 -100t-78.5 -242t78.5 -242t189.5 -100zM605 667q91 -114 91 -275t-91 -275q-45 -55 -101 -85q-61 -32 -126 -32t-126 32q-56 30 -101 85q-91 114 -91 275t91 275q45 55 101 85q61 32 126 32 t126 -32q56 -30 101 -85zM385 916l-166 -116l-29 41l196 137l180 -138l-31 -39z" unicode="Ô"/>
<glyph glyph-name="Otilde" d="M378 50q111 0 189.5 100t78.5 242q0 141 -78.5 241.5t-189.5 100.5t-189.5 -100t-78.5 -242t78.5 -242t189.5 -100zM605 667q91 -114 91 -275t-91 -275q-45 -55 -101 -85q-61 -32 -126 -32t-126 32q-56 30 -101 85q-91 114 -91 275t91 275q45 55 101 85q61 32 126 32 t126 -32q56 -30 101 -85zM300 825l-10 -22l-46 21l11 22q22 49 55 56q8 2 13 2q24 0 65 -32q26 -22 37 -22h2q13 4 29 38l10 23l45 -21l-10 -23q-26 -56 -63 -65q-10 -2 -13 -2q-26 0 -68 33q-29 21 -34 21h-1q-9 0 -22 -29z" unicode="Õ"/>
<glyph glyph-name="Odieresis" d="M378 50q111 0 189.5 100t78.5 242q0 141 -78.5 241.5t-189.5 100.5t-189.5 -100t-78.5 -242t78.5 -242t189.5 -100zM605 667q91 -114 91 -275t-91 -275q-45 -55 -101 -85q-61 -32 -126 -32t-126 32q-56 30 -101 85q-91 114 -91 275t91 275q45 55 101 85q61 32 126 32 t126 -32q56 -30 101 -85zM468 810q-10 0 -17.5 7t-7.5 18v14q0 11 7.5 18t17.5 7t17.5 -7t7.5 -18v-14q0 -11 -7.5 -18t-17.5 -7zM288 810q-10 0 -17.5 7t-7.5 18v14q0 11 7.5 18t17.5 7t17.5 -7t7.5 -18v-14q0 -11 -7.5 -18t-17.5 -7z" unicode="Ö"/>
<glyph glyph-name="multiply" horiz-adv-x="171" unicode="×"/>
<glyph glyph-name="Oslash" horiz-adv-x="764" unicode="Ø" d="M650 392q0 128 -69 228l-367 -494q73 -76 168 -76q111 0 189.5 100t78.5 242zM114 392q0 -130 67 -226l367 494q-72 74 -166 74q-111 0 -189.5 -100t-78.5 -242zM703 784l-90 -122q87 -113 87 -270q0 -161 -91 -275q-45 -55 -101 -85q-61 -32 -126 -32t-126 32 q-43 23 -73 53l-63 -85h-63l93 124q-86 114 -86 268q0 161 91 275q45 55 101 85q61 32 126 32t126 -32q38 -20 71 -52l62 84h62z"/>
<glyph glyph-name="Ugrave" horiz-adv-x="636" unicode="Ù" d="M514 784h50v-536q0 -103 -72 -175t-175 -72t-175 72t-72 175v536h50v-536q0 -82 57.5 -139.5t139.5 -57.5t139.5 57.5t57.5 139.5v536zM219 926l31 40l165 -126l-31 -40z"/>
<glyph glyph-name="Uacute" horiz-adv-x="636" unicode="Ú" d="M514 784h50v-536q0 -103 -72 -175t-175 -72t-175 72t-72 175v536h50v-536q0 -82 57.5 -139.5t139.5 -57.5t139.5 57.5t57.5 139.5v536zM219 840l165 126l31 -40l-165 -126z"/>
<glyph glyph-name="Ucircumflex" horiz-adv-x="636" unicode="Û" d="M514 784h50v-536q0 -103 -72 -175t-175 -72t-175 72t-72 175v536h50v-536q0 -82 57.5 -139.5t139.5 -57.5t139.5 57.5t57.5 139.5v536zM324 916l-166 -116l-29 41l197 137l179 -138l-31 -39z"/>
<glyph glyph-name="Udieresis" horiz-adv-x="636" unicode="Ü" d="M514 784h50v-536q0 -103 -72 -175t-175 -72t-175 72t-72 175v536h50v-536q0 -82 57.5 -139.5t139.5 -57.5t139.5 57.5t57.5 139.5v536zM407 810q-11 0 -18 7t-7 18v14q0 11 7 18t18 7t18 -7t7 -18v-14q0 -11 -7 -18t-18 -7zM227 810q-11 0 -18 7t-7 18v14q0 11 7 18t18 7 t18 -7t7 -18v-14q0 -11 -7 -18t-18 -7z"/>
<glyph glyph-name="germandbls" horiz-adv-x="595" unicode="ß" d="M72 0l-1 585q0 84 52 139q56 59 145 59q91 0 145 -59q49 -54 49 -139q0 -75 -47 -114q-23 -19 -84 -38q-28 -8 -36 -13q-5 -2 -5 -5q1 -1 13 -4q15 -3 36 -6q85 -11 124 -36q71 -45 71 -150q0 -43 -19 -86q-18 -40 -49 -69q-66 -64 -151 -64q-30 0 -56.5 5.5t-41.5 12 t-27.5 15.5t-17 13.5t-6.5 8.5l42 28q10 -10 22 -16q32 -17 85 -17q66 0 117.5 51.5t51.5 117.5q0 78 -48 108q-31 20 -103 28q-43 6 -56 11q-37 14 -37 47q0 32 29 50q14 9 48 18q24 7 36.5 12t28.5 16t23 29.5t7 46.5q0 61 -35.5 104.5t-108.5 43.5q-67 0 -107 -40 t-40 -108l1 -585h-50z"/>
<glyph glyph-name="agrave" horiz-adv-x="533" unicode="à" d="M160 744l31 40l164 -126l-30 -40zM414 169v126q-16 -6 -32 -6h-4h-120q-67 0 -113 -37q-44 -35 -44 -83q0 -47 44 -82q46 -37 113 -37t113 37q43 34 43 82zM464 405v-25v-4v-207q0 -71 -62 -121q-60 -48 -144 -48t-144 48q-63 50 -63 121q0 72 63 122q60 48 144 48h121h2 q14 -1 23 8q10 10 10 30v33q0 49 -43 84t-105 35q-82 0 -126 -58l-15 -20l-41 30l15 20q59 78 167 78q82 0 139 -48q59 -50 59 -121v-5z"/>
<glyph glyph-name="aacute" horiz-adv-x="533" unicode="á" d="M160 658l165 126l30 -40l-164 -126zM414 169v126q-16 -6 -32 -6h-4h-120q-67 0 -113 -37q-44 -35 -44 -83q0 -47 44 -82q46 -37 113 -37t113 37q43 34 43 82zM464 405v-25v-4v-207q0 -71 -62 -121q-60 -48 -144 -48t-144 48q-63 50 -63 121q0 72 63 122q60 48 144 48h121 h2q14 -1 23 8q10 10 10 30v33q0 49 -43 84t-105 35q-82 0 -126 -58l-15 -20l-41 30l15 20q59 78 167 78q82 0 139 -48q59 -50 59 -121v-5z"/>
<glyph glyph-name="acircumflex" horiz-adv-x="542" unicode="â" d="M283 730l-111 -75l-28 41l139 97v-1l140 -96l-29 -41zM420 169v126q-16 -6 -32 -6h-4h-120q-67 0 -113 -37q-44 -35 -44 -83q0 -47 44 -82q46 -37 113 -37t113 37q43 34 43 82zM470 405v-25v-4v-207q0 -71 -62 -121q-60 -48 -144 -48t-144 48q-63 50 -63 121q0 72 63 122 q60 48 144 48h121h2q14 -1 23 8q10 10 10 30v33q0 49 -43 84t-105 35q-82 0 -126 -58l-15 -20l-41 30l15 20q59 78 167 78q82 0 139 -48q59 -50 59 -121v-5z"/>
<glyph glyph-name="atilde" horiz-adv-x="533" unicode="ã" d="M186 701l-10 -23l-46 22l11 22q22 49 55 56q8 2 13 2q24 0 65 -32q26 -22 37 -22h2q13 4 29 38l10 23l46 -22l-11 -22q-26 -57 -63 -66q-5 -1 -13 -1q-26 0 -68 33q-29 21 -34 21l-1 -1q-9 0 -22 -28zM414 169v126q-16 -6 -32 -6h-4h-120q-67 0 -113 -37q-44 -35 -44 -83 q0 -47 44 -82q46 -37 113 -37t113 37q43 34 43 82zM464 405v-25v-4v-207q0 -71 -62 -121q-60 -48 -144 -48t-144 48q-63 50 -63 121q0 72 63 122q60 48 144 48h121h2q14 -1 23 8q10 10 10 30v33q0 49 -43 84t-105 35q-82 0 -126 -58l-15 -20l-41 30l15 20q59 78 167 78 q82 0 139 -48q59 -50 59 -121v-5z"/>
<glyph glyph-name="adieresis" horiz-adv-x="533" unicode="ä" d="M360 674q-10 0 -17.5 7t-7.5 18v13q0 11 7.5 18.5t17.5 7.5t17.5 -7.5t7.5 -18.5v-13q0 -11 -7.5 -18t-17.5 -7zM180 674q-10 0 -17.5 7t-7.5 18v13q0 11 7.5 18.5t17.5 7.5t17.5 -7.5t7.5 -18.5v-13q0 -11 -7.5 -18t-17.5 -7zM414 169v126q-16 -6 -32 -6h-4h-120 q-67 0 -113 -37q-44 -35 -44 -83q0 -47 44 -82q46 -37 113 -37t113 37q43 34 43 82zM464 405v-25v-4v-207q0 -71 -62 -121q-60 -48 -144 -48t-144 48q-63 50 -63 121q0 72 63 122q60 48 144 48h121h2q14 -1 23 8q10 10 10 30v33q0 49 -43 84t-105 35q-82 0 -126 -58l-15 -20 l-41 30l15 20q59 78 167 78q82 0 139 -48q59 -50 59 -121v-5z"/>
<glyph glyph-name="aring" horiz-adv-x="533" unicode="å" d="M271 731q-14 0 -24 -10t-10 -24t10 -24t24 -10t24 10t10 24t-10 24t-24 10zM271 613q-35 0 -59.5 24.5t-24.5 59.5t24.5 59.5t59.5 24.5t59.5 -24.5t24.5 -59.5t-24.5 -59.5t-59.5 -24.5zM414 169v126q-16 -6 -32 -6h-4h-120q-67 0 -113 -37q-44 -35 -44 -83 q0 -47 44 -82q46 -37 113 -37t113 37q43 34 43 82zM464 405v-25v-4v-207q0 -71 -62 -121q-60 -48 -144 -48t-144 48q-63 50 -63 121q0 72 63 122q60 48 144 48h121h2q14 -1 23 8q10 10 10 30v33q0 49 -43 84t-105 35q-82 0 -126 -58l-15 -20l-41 30l15 20q59 78 167 78 q82 0 139 -48q59 -50 59 -121v-5z"/>
<glyph glyph-name="ae" horiz-adv-x="898" unicode="æ" d="M372 87q43 34 43 82q-3 124 -3 125q-15 -5 -29 -5h-4h-120q-67 0 -113 -37q-44 -35 -44 -83q0 -47 44 -82q46 -37 113 -37t113 37zM654 529q-70 0 -123 -55.5t-66 -138.5q10 4 30 4h136q76 0 119 34q35 27 35 66q0 36 -34 63t-97 27zM805 129l40 -30l-15 -20 q-58 -78 -175 -78q-103 0 -174 86q-15 18 -24 34q-15 -41 -54 -73q-60 -48 -144 -48t-144 48q-63 50 -63 121q0 72 63 122q60 48 144 48q26 -1 57 -1q79 0 89 9q10 10 10 30v33q0 49 -43 84t-105 35q-83 0 -126 -58l-15 -20l-41 30l15 20q59 78 167 78q82 0 139 -48 q37 -31 51 -73q7 12 25 34q33 40 77 63q48 24 95 24h1q82 0 132 -41q48 -40 48 -99q0 -62 -54 -105q-57 -45 -150 -45h-46h-93q-10 0 -16 -6q-11 -11 -11 -28v-8q12 -84 66 -140t124 -56q92 0 135 58z"/>
<glyph glyph-name="ccedilla" horiz-adv-x="534" unicode="ç" d="M426 108l15 20l40 -30l-15 -20q-52 -69 -148 -77v-22q20 -8 34 -26q22 -28 22 -64q0 -37 -22 -65q-24 -30 -59 -30q-42 0 -65 39l-13 21l42 26l13 -21q9 -15 23 -15q13 0 22 13.5t9 31.5t-9 31t-22 13h-25v69q-32 4 -64 21q-44 23 -77 63q-69 83 -69 203v1q0 119 69 202 q33 40 77 63q45 24 96 24t95 -20.5t71 -57.5l15 -20l-40 -30l-15 20q-44 58 -126 58q-80 0 -136 -70t-56 -169v-1q0 -99 56 -169t136 -70q82 0 126 58z"/>
<glyph glyph-name="egrave" horiz-adv-x="542" unicode="è" d="M176 744l30 40l165 -126l-30 -40zM299 529q-70 0 -123 -55.5t-66 -138.5q10 4 29 4h136q77 0 120 34q35 27 35 66q0 36 -34 63t-97 27zM450 129l40 -30l-15 -20q-58 -78 -176 -78q-102 0 -173 86q-48 59 -63 136l-3 21q-3 23 -3 46q0 119 69 202q33 40 77 63q48 24 95 24 h1v0q83 0 133 -41q48 -40 48 -99q0 -62 -54 -105q-57 -45 -151 -45h-45h-94q-10 0 -16 -6q-11 -12 -11 -28l1 -8q12 -84 65.5 -140t123.5 -56q93 0 136 58z"/>
<glyph glyph-name="eacute" horiz-adv-x="542" unicode="é" d="M176 658l165 126l30 -40l-165 -126zM299 529q-70 0 -123 -55.5t-66 -138.5q10 4 29 4h136q77 0 120 34q35 27 35 66q0 36 -34 63t-97 27zM450 129l40 -30l-15 -20q-58 -78 -176 -78q-102 0 -173 86q-48 59 -63 136l-3 21q-3 23 -3 46q0 119 69 202q33 40 77 63 q48 24 95 24h1v0q83 0 133 -41q48 -40 48 -99q0 -62 -54 -105q-57 -45 -151 -45h-45h-94q-10 0 -16 -6q-11 -12 -11 -28l1 -8q12 -84 65.5 -140t123.5 -56q93 0 136 58z"/>
<glyph glyph-name="ecircumflex" horiz-adv-x="543" unicode="ê" d="M303 730l-111 -75l-28 42l139 96l140 -96l-29 -42zM305 529q-70 0 -123 -55.5t-66 -138.5q10 4 29 4h136q77 0 120 34q35 27 35 66q0 36 -34 63t-97 27zM456 129l40 -30l-15 -20q-58 -78 -176 -78q-102 0 -173 86q-48 59 -63 136l-3 21q-3 23 -3 46q0 119 69 202 q33 40 77 63q48 24 95 24h1v0q83 0 133 -41q48 -40 48 -99q0 -62 -54 -105q-57 -45 -151 -45h-45h-94q-10 0 -16 -6q-11 -12 -11 -28l1 -8q12 -84 65.5 -140t123.5 -56q93 0 136 58z"/>
<glyph glyph-name="edieresis" horiz-adv-x="543" unicode="ë" d="M391 674q-11 0 -18 7t-7 18v13q0 11 7.5 18.5t17.5 7.5t17.5 -7.5t7.5 -18.5v-13q0 -11 -7 -18t-18 -7zM211 674q-11 0 -18 7t-7 18v13q0 11 7.5 18.5t17.5 7.5t17.5 -7.5t7.5 -18.5v-13q0 -11 -7 -18t-18 -7zM300 529q-70 0 -123 -55.5t-66 -138.5q10 4 29 4h136 q77 0 120 34q35 27 35 66q0 36 -34 63t-97 27zM451 129l40 -30l-15 -20q-58 -78 -176 -78q-102 0 -173 86q-48 59 -63 136l-3 21q-3 23 -3 46q0 119 69 202q33 40 77 63q48 24 95 24h1v0q83 0 133 -41q48 -40 48 -99q0 -62 -54 -105q-57 -45 -151 -45h-45h-94q-10 0 -16 -6 q-11 -12 -11 -28l1 -8q12 -84 65.5 -140t123.5 -56q93 0 136 58z"/>
<glyph glyph-name="igrave" horiz-adv-x="281" unicode="ì" d="M208 618l-165 126l30 40l165 -126zM108 0v579h50v-579h-50z"/>
<glyph glyph-name="iacute" horiz-adv-x="279" unicode="í" d="M70 618l-30 40l165 126l30 -40zM124 0v579h50v-579h-50z"/>
<glyph glyph-name="icircumflex" horiz-adv-x="364" unicode="î" d="M182 729l-111 -74l-29 41l139 97l1 -1l139 -96l-28 -41zM157 0v579h50v-579h-50z"/>
<glyph glyph-name="idieresis" horiz-adv-x="318" unicode="ï" d="M247 738q10 0 17.5 -7.5t7.5 -18.5v-13q0 -11 -7 -18t-18 -7t-18 7t-7 18v13q0 11 7.5 18.5t17.5 7.5zM67 738q10 0 17.5 -7.5t7.5 -18.5v-13q0 -11 -7 -18t-18 -7t-18 7t-7 18v13q0 11 7.5 18.5t17.5 7.5zM133 0v579h50v-579h-50z"/>
<glyph glyph-name="eth" horiz-adv-x="171" unicode="ð"/>
<glyph glyph-name="ntilde" horiz-adv-x="553" unicode="ñ" d="M201 701l-11 -23l-45 22l10 22q22 49 55 56q8 2 13 2q24 0 65 -32q26 -22 37 -22h2q13 4 29 38l11 23l45 -22l-11 -22q-26 -57 -63 -66q-5 -1 -13 -1q-26 0 -68 33q-29 21 -34 21l-1 -1q-8 0 -21 -28zM420 514q60 -66 60 -156v-358h-50v358q0 71 -46 121t-110 50 t-110 -50t-46 -121v-358h-50v358q0 90 60 156q60 65 146 65t146 -65z"/>
<glyph glyph-name="ograve" horiz-adv-x="616" unicode="ò" d="M207 744l30 40l165 -126l-30 -40zM304 51q82 0 140 69t58 166t-58 166.5t-140 69.5t-139.5 -69t-57.5 -167t57.5 -166.5t139.5 -68.5zM481 486q71 -83 71 -200t-71 -200q-33 -39 -79 -62q-48 -23 -98 -23q-49 0 -97 23q-46 23 -79 62q-71 83 -71 200t71 200q36 40 79 62 q50 24 97 24q48 0 98 -24q46 -23 79 -62z"/>
<glyph glyph-name="oacute" horiz-adv-x="616" unicode="ó" d="M197 658l165 126l30 -40l-165 -126zM304 51q82 0 140 69t58 166t-58 166.5t-140 69.5t-139.5 -69t-57.5 -167t57.5 -166.5t139.5 -68.5zM481 486q71 -83 71 -200t-71 -200q-33 -39 -79 -62q-48 -23 -98 -23q-49 0 -97 23q-46 23 -79 62q-71 83 -71 200t71 200 q36 40 79 62q50 24 97 24q48 0 98 -24q46 -23 79 -62z"/>
<glyph glyph-name="ocircumflex" horiz-adv-x="625" unicode="ô" d="M310 730l-111 -75l-28 42l139 96l140 -96l-29 -42zM310 51q82 0 140 69t58 166t-58 166.5t-140 69.5t-139.5 -69t-57.5 -167t57.5 -166.5t139.5 -68.5zM487 486q71 -83 71 -200t-71 -200q-36 -40 -79 -62q-48 -23 -98 -23q-49 0 -97 23q-46 23 -79 62q-71 83 -71 200 t71 200q36 40 79 62q50 24 97 24q48 0 98 -24q46 -23 79 -62z"/>
<glyph glyph-name="otilde" horiz-adv-x="616" unicode="õ" d="M227 701l-11 -23l-45 22l10 22q22 48 56 56q8 2 12 2q24 0 65 -32q26 -22 37 -22h2q13 4 29 38l11 23l45 -22l-11 -22q-26 -57 -63 -66q-5 -1 -13 -1q-26 0 -68 33q-29 21 -34 21l-1 -1q-8 0 -21 -28zM304 51q82 0 140 69t58 166t-58 166.5t-140 69.5t-139.5 -69 t-57.5 -167t57.5 -166.5t139.5 -68.5zM481 486q71 -83 71 -200t-71 -200q-33 -39 -79 -62q-48 -23 -98 -23q-49 0 -97 23q-46 23 -79 62q-71 83 -71 200t71 200q36 40 79 62q50 24 97 24q48 0 98 -24q46 -23 79 -62z"/>
<glyph glyph-name="odieresis" horiz-adv-x="616" unicode="ö" d="M394 674q-10 0 -17.5 7t-7.5 18v13q0 11 7.5 18.5t17.5 7.5t17.5 -7.5t7.5 -18.5v-13q0 -11 -7.5 -18t-17.5 -7zM214 674q-10 0 -17.5 7t-7.5 18v13q0 11 7.5 18.5t17.5 7.5t17.5 -7.5t7.5 -18.5v-13q0 -11 -7.5 -18t-17.5 -7zM304 51q82 0 140 69t58 166t-58 166.5 t-140 69.5t-139.5 -69t-57.5 -167t57.5 -166.5t139.5 -68.5zM481 486q71 -83 71 -200t-71 -200q-33 -39 -79 -62q-48 -23 -98 -23q-49 0 -97 23q-46 23 -79 62q-71 83 -71 200t71 200q36 40 79 62q50 24 97 24q48 0 98 -24q46 -23 79 -62z"/>
<glyph glyph-name="divide" horiz-adv-x="608" unicode="÷" d="M296 500q-20 0 -32.5 13.5t-12.5 34.5t13 34.5t33 13.5t32.5 -13.5t12.5 -34.5t-12.5 -34.5t-33.5 -13.5zM59 278v49h482v-49h-482zM297 96q20 0 32.5 -13.5t12.5 -34.5t-12.5 -34.5t-33.5 -13.5q-20 0 -32.5 13.5t-12.5 34.5t13 34.5t33 13.5z"/>
<glyph glyph-name="oslash" horiz-adv-x="620" unicode="ø" d="M505 286q0 88 -50 156l-260 -349q50 -42 112 -42q82 0 140 69t58 166zM110 286q0 -88 50 -156l260 349q-51 43 -113 43q-82 0 -139.5 -69t-57.5 -167zM556 579l-70 -95q69 -81 69 -198t-71 -200q-33 -39 -79 -62q-48 -23 -98 -23q-49 0 -97 23q-22 11 -45 29l-40 -53h-62 l66 89q-69 83 -69 197q0 117 71 200q36 40 79 62q50 24 97 24q48 0 98 -24q26 -13 45 -28l44 59h62z"/>
<glyph glyph-name="ugrave" horiz-adv-x="549" unicode="ù" d="M175 744l31 40l165 -126l-31 -40zM429 579h50v-358q0 -90 -60 -156q-60 -65 -146 -65t-146 65q-60 66 -60 156v358h50v-358q0 -71 46 -121t110 -50t110 50t46 121v358z"/>
<glyph glyph-name="uacute" horiz-adv-x="549" unicode="ú" d="M175 658l165 126l31 -40l-165 -126zM429 579h50v-358q0 -90 -60 -156q-60 -65 -146 -65t-146 65q-60 66 -60 156v358h50v-358q0 -71 46 -121t110 -50t110 50t46 121v358z"/>
<glyph glyph-name="ucircumflex" horiz-adv-x="555" unicode="û" d="M277 729l-111 -74l-29 41l140 97v-1l140 -96l-29 -41zM433 579h50v-358q0 -90 -60 -156q-60 -65 -146 -65t-146 65q-60 66 -60 156v358h50v-358q0 -71 46 -121t110 -50t110 50t46 121v358z"/>
<glyph glyph-name="udieresis" horiz-adv-x="549" unicode="ü" d="M363 674q-11 0 -18 7t-7 18v13q0 11 7.5 18.5t17.5 7.5t17.5 -7.5t7.5 -18.5v-13q0 -11 -7 -18t-18 -7zM183 674q-11 0 -18 7t-7 18v13q0 11 7.5 18.5t17.5 7.5t17.5 -7.5t7.5 -18.5v-13q0 -11 -7 -18t-18 -7zM429 579h50v-358q0 -90 -60 -156q-60 -65 -146 -65t-146 65 q-60 66 -60 156v358h50v-358q0 -71 46 -121t110 -50t110 50t46 121v358z"/>
<glyph glyph-name="OE" horiz-adv-x="1022" unicode="Œ" d="M377 49q60 0 113 32v618q-53 32 -113 32q-110 0 -188.5 -100t-78.5 -241t78.5 -241t188.5 -100zM957 0l-467 -1v26q-55 -26 -113 -26q-64 0 -125 32q-56 30 -101 85q-91 114 -91 274t91 274q45 55 101 85q61 32 125 32q60 0 113 -25v27l467 1v-50h-417v-303q17 7 41 7 h376v-50h-376q-25 0 -34 -11q-7 -7 -7 -21v-307l417 1v-50z"/>
<glyph glyph-name="oe" horiz-adv-x="990" unicode="œ" d="M305 51q82 0 140 69t58 166t-58 166.5t-140 69.5t-139.5 -69t-57.5 -167t57.5 -166.5t139.5 -68.5zM746 529q-70 0 -123 -55.5t-66 -138.5q10 4 29 4h136q77 0 120 34q35 27 35 66q0 36 -34 63t-97 27zM897 129l40 -30l-15 -20q-58 -78 -176 -78q-102 0 -173 86 q-29 35 -45 75q-18 -42 -46 -76q-33 -39 -79 -62q-48 -23 -98 -23q-49 0 -97 23q-46 23 -79 62q-71 83 -71 200t71 200q36 40 79 62q50 24 97 24q48 0 98 -24q46 -23 79 -62q26 -30 45 -73q16 43 46 79q33 40 77 63q48 24 95 24h1v0q82 0 132 -41q49 -41 49 -99 q0 -62 -54 -105q-57 -45 -151 -45h-45h-94q-10 0 -16 -6q-11 -12 -11 -28l1 -8q12 -84 65.5 -140t123.5 -56q93 0 136 58z"/>
<glyph glyph-name="Euro" horiz-adv-x="767" unicode="€" d="M663 183l13 21l43 -26l-13 -22q-43 -69 -109 -112q-68 -43 -145 -43q-65 0 -126 32q-56 30 -101 85q-63 79 -83 188h-88v50h81q-1 12 -1 37q0 5 0.5 13t0.5 12h-81v50h86q19 116 85 199q45 55 101 85q61 32 126 32q77 0 145 -43q66 -43 109 -112l13 -22l-43 -26l-13 21 q-38 62 -93.5 97t-117.5 35q-94 0 -167.5 -75.5t-93.5 -190.5h258v-50h-264q0 -4 -0.5 -12t-0.5 -13q0 -13 2 -37h263v-50h-256q23 -111 95 -182.5t164 -71.5q62 0 117.5 34.5t93.5 96.5z"/>
</font>
</defs>
</svg>
